<?xml version="1.0" encoding="UTF-8"?>
<svg id="Layer_1" xmlns="http://www.w3.org/2000/svg" version="1.1" viewBox="0 0 300 150">
  <!-- Generator: Adobe Illustrator 29.8.0, SVG Export Plug-In . SVG Version: 2.1.1 Build 160)  -->
  <defs>
    <style>
      .st0 {
        fill: #0fc6fd;
      }

      .st1 {
        fill: #00cefe;
      }

      .st2 {
        fill: #fefefe;
      }
    </style>
  </defs>
  <g id="surface1">
    <path class="st2" d="M0,0h300v150H0V0ZM224.06,19.01c-3.37-.12-6.5.11-9.79.91-12.62,3.06-31.44,14.51-41.89,22.45-1.05-1.62-2.16-3.21-3.31-4.77-4.47-5.9-11.17-11.13-18.66-12.31-1.57-.25-3.14.21-4.69-.03-.92-.14-1.75-.5-2.51-1.04-2.98-2.14-.97-4.87-3.25-7.95-1.37-1.85-3.42-3.06-5.69-3.37-2.32-.31-4.54.31-6.38,1.75-3.62,2.83-2.53,6.35-2.92,10.24-.19,1.92-.71,3.81-.94,5.73-5.96-1.86-11.82-4.2-17.71-6.28l-36.78-12.83c-3.38-1.17-6.75-2.35-10.12-3.55-2.63-.94-5.42-2.18-8.18-2.57-3.57-.49-7.21.14-10.41,1.8-4.42,2.28-7.76,6.22-9.26,10.97-2.69,8.65,1.54,11.61,2.17,19.1-1.49,1-2.28,2.59-2.61,4.31-.9,4.59.5,9.04,3.08,12.84.95,1.37,2,2.66,3.14,3.87-1.78,7.04-.36,14.53.68,21.59-2.09,0-11.27-.05-12.6,1.12l-.1.3.19.33c1.86.14,3.81-.24,5.66-.41,2.31-.2,4.64-.25,6.96-.14.36,1.1.61,2.26,1.01,3.35-3.31.72-8.64,1.88-10.89,4.63-.02.38-.03.4.19.71.36.12.51.15.87-.05.85-.46,1.54-1.2,2.39-1.66,2.32-1.26,5.23-1.89,7.77-2.52l1,2.21c-1.87.89-6.23,4.02-7.14,5.81v.38c.29.25.3.25.68.27.97-.53,1.82-1.57,2.67-2.3,1.29-1.1,2.72-2.16,4.14-3.07,1.05,1.73,1.94,3.69,3.09,5.33,1.41,2.02,4.06,4.15,6.47,4.76,1.32.33,2.67.2,3.99-.03.75,1.17,1.43,2.38,2.02,3.64-1.7,1.7-2.28,3.26-4.52,4.51-.08-.8-.04-2.38-.67-2.93-.79.09-1.54,1.17-2.01,1.76-.81,1.02-1.69,2.06-2.4,3.16-1.21.62-5.28,3.7-6.16,3.78,1.97-5.21,1.37-9.92-.06-15.19-.35-1.29-.63-2.73-1.18-3.95-.19-.42-.37-.65-.78-.85-.55.18-.87.97-1.12,1.46-1.37,2.72-3.54,6.95-3.75,9.98-.18,2.49.61,5.16,1.39,7.5.24.71.5,1.47.91,2.1l.21.04c.51-.38.67-.82.75-1.44.37-2.78-1.38-9.83-.42-11.58l.26-.16c.2.08.33.08.42.29.36.86.22,2.49.28,3.43.22,3.4,1.11,7.73-.08,11.01-.54.35-1.06.69-1.56,1.11-3.05-7.28-4.85-14.69-5.03-22.61-.02-.96.21-3.72-.74-4.18-.27.15-.38.19-.46.51-.65,2.52.16,9.66.73,12.52-.58-.75-2.07-2.98-3.04-3.04-.05,0-.09,0-.14,0-.13.14-.25.19-.24.4.02.39,2.93,3.73,3.46,4.74.99,1.88,1.4,4.18,2.03,6.2.6,1.94,1.34,3.82,2.08,5.71-.68.45-1.35.91-2.01,1.38-2.61-1.41-14.95-6.83-17.22-6.3-.26.21-.37.28-.42.64-.13,1.02,2.08,3.56,2.76,4.32,2.96,3.26,6.65,5.25,10.52,7.22-.22,2.14-.11,4.19.19,6.32.02.11,0,.17-.06.27-1.42.06-4.47-.12-5.56.72-.11.33-.15.42.02.75.91,1.85,6.34,4.96,8.23,6.21,2.81,3.41,6.85,5.59,11.24,6.06,3.84.41,7.8-.1,11.66.09.44.17.77.08,1.21-.01l11.16-.02c1.52,0,3.4-.21,4.89.07.4.06.55.1.94-.06l.12-.35c-.08-.95-1.94-5.33-2.39-6.55-.71-1.95-1.36-3.92-1.95-5.91-.9-3-1.8-6.02-2.46-9.08-.75-3.47-1.17-7.29-2.48-10.58-.96-2.42-2.41-4.68-3.68-6.95-1.22-2.18-2.36-4.41-3.63-6.57,3.09-1.56,5.73-5.54,8.16-8.15,2.18.93,4.29,2.14,6.27,3.43.85.56,1.88,1.6,2.81,1.95.32.12.43.11.73-.03.09-.26.16-.35.06-.62-.51-1.3-4.52-3.12-5.67-4.39-1.19-1.32-1.72-2.93-2.28-4.57,1.5.41,2.98.88,4.44,1.42,1.32.5,3.66,1.89,4.94,1.97.24.02.28-.08.45-.23.03-.13.14-.37.07-.48-.77-1.29-8.2-3.41-10.14-3.91-.23-1.16-.55-2.31-.85-3.46,2.61-.24,5.25-.4,7.87-.33.8.02,3.08.3,3.75.07.1-.03.23-.14.32-.2.08-.37.08-.38-.11-.71-1.15-.85-10.62-.19-12.24-.07-1.61-2.98-5.52-7.08-5-10.69.2-.28.24-.34.59-.42.54-.12,1.21-.05,1.77-.06,1.43-.03,2.98-.15,4.33-.62,1.46-.5,2.42-1.53,3.08-2.91.45-.95,1.31-3.16.89-4.15-.17-.4-.5-.6-.9-.74-2.11-.74-4.6.07-6.5,1.02-1.88.94-3.29,2.92-3.93,4.87-2.15,6.56,1.68,8.23,4.03,13.2.44.93-.34.8-.59,1.47.42.89.72.28,1.39.6.4.88.56,1.85.77,2.79-1.24-.21-2.48-.53-3.73-.61-.49-.03-1.11-.09-1.5.25l.07.27c.84.92,4.12,1.06,5.47,1.46-.09,1.09-.3,2.05-.69,3.07-1.3-.63-2.8-1.17-4.21-1.49-.54-.12-1.37-.33-1.87-.02l-.02.28c.8,1.1,3.48,1.43,4.8,1.96-.8.77-1.96,1.53-3.03,1.8-1.58.4-3.21-.31-4.54-1.12-.96-.59-3.11-2.13-3.34-3.26-.07-.35-.03-.59.21-.88.38-.46,1.03-.81,1.52-1.14,1.38-.94,2.74-2.03,3.61-3.48.27-.46.47-1.04.31-1.58-.18-.57-.69-1.11-1.21-1.4-2.07-1.15-8.43-.32-10.75.3.62-3.41,3.71-9.55,3.53-12.09-.13-1.88-1-3.85-2.43-5.09-1.36-1.17-3.14-1.74-4.92-1.59-.91.08-2.32.54-2.87,1.32-.36.52-.14,1.76-.03,2.37.23,1.32.95,2.44,2.05,3.19,1.96,1.35,4.76,1.46,7.03,1.04-1.4,4.4-4.65,9.76-3.28,14.47-1.33.56-2.64,1.14-4.04,1.51-.33-.98-.54-1.95-.74-2.97.8.16,1.45.36,2.21-.06l.06-.25c-.05-.06-.08-.11-.13-.17-.57-.66-1.58-.62-2.39-.71-.92-9.69-3.18-14.62.53-24.39.88-2.31,1.93-4.79,3.26-6.86-1.47-1.47-6.57-5.17-8.59-5.59-.35.17-.36.22-.54.56.08.35.13.41.42.63.75.55,1.69.95,2.5,1.42,1.63.94,3.19,2,4.65,3.19-1.49,2.51-2.59,5.47-3.56,8.22-.93-1.08-1.88-2.16-2.69-3.32-2.33-3.32-3.69-7.5-2.96-11.56.22-1.25.65-2.92,1.76-3.66.47-.32,1.08-.33,1.62-.22,1.11.22,2.23.84,3.21,1.4,3.28,1.89,5.76,4.12,7.86,7.27,7.32-1.97,11.2-2.51,18.71-.56,3.69-4.12,7.08-8.11,12.78-9.28,1.55-.32,3.96-.67,5.33.28,1.27.87,1.69,3.22,1.93,4.65,1.04,6.37-1.04,12.55-4.73,17.69,2.08,13.29,2.9,25.97-2.07,38.79-.91,2.35-2.08,4.6-3.31,6.8-.44.79-1.44,1.83-1.59,2.7-.05.3-.04.32.14.57.39.06.45.07.81-.09,6.98-9.66,9.32-22.61,8.96-34.31-.05-1.8-.18-3.6-.37-5.39-.18-1.58-.48-3.19-.47-4.78,5.36,8.12,11.27,13.65,18.43,20.13l11,9.89c3.06,2.73,8.3,7.04,10.66,10.14-1.46.23-2.91.59-4.36.92-.54-1.1-1.59-3.05-2.75-3.54-.38.05-.37.09-.62.39-.02.87,1.64,2.79,2.15,3.66-1.27.77-2.52,1.37-3.7,2.31-2.9,2.31-4.64,5.61-7.28,8.15-1.63,1.57-3.75,2.68-5.23,4.39-1.59,1.85-2.71,4.68-2.52,7.14.1,1.25.51,3.35,1.48,4.19.2.03.29.08.47-.04.57-.37.69-2.3.85-3.01,1.04-.18,2.02-.11,3.06-.03.59,1.03,1.09,2.24,2.24,2.74l.27-.15c0-1.07-.46-1.72-1.01-2.6l2.24.07c1.75.06,3.34.65,4.54,1.97,2.4,2.63,1.16,8.91,1.05,12.3-.02.55.01.96.4,1.37.23,0,.43.05.58-.16.14-.19.23-.84.3-1.08.53-1.85,1.14-3.85,2.83-4.97,2.73-1.82,5.89-2.23,8.94-3.26,1.89-.64,3.83-1.7,5.49-2.8,1.86-1.23,3.33-3.01,3.76-5.25.45-2.4-.28-4.75-1.63-6.73-1.82-2.67-4.13-4.13-7.29-4.71-1.09-1.24-2.5-2.15-4.19-2.25-4.24-.24-7.96,3.6-10.88,6.17-.12-.31-.25-.62-.39-.93-.66-1.51-1.55-2.27-3.05-2.86.64-.85,1.28-1.7,1.94-2.54,3.53-4.55,7.12-6.94,12.95-7.66,8.05-.99,16.61,2.35,21.31,9.13,2.51,3.63,4.15,8.9,5.83,13.06,1.6,4.03,3.33,8,5.19,11.91.44.95,1.69,4.03,2.4,4.51.33.22.47.21.83.15l.19-.28c.04-.63-1.63-3.62-2-4.38,6.16-5.87,10.76-13.02,13.17-21.21.76,1.89,1.5,3.89,2.67,5.56,1.63,2.33,4.24,4.28,6.34,6.19,2.32,2.11,4.58,4.28,6.93,6.36.34,1.26.83,2.46,1.69,3.46,1.63,1.9,3.94,2.47,6.31,2.64.31.28-.11,1.23.17,1.78.38.19.63.16,1.04.11,2.66.13,5.35.06,8.01.06h13.57s12.97,0,12.97,0c2.37,0,4.77.09,7.13-.02l.15.05c2.41.23,4.94-.07,7.37.03,1.53.08,3.15.15,4.67-.07,5.91.25,11.25.35,16.55-2.71,4.7-2.71,8.57-7.19,10-12.49.4-.3.81-.58,1.11-.99.01-.46-.1-.53-.36-.88.02-1.12.5-2.52.68-3.67.34-2.17.3-4.25.19-6.43,1.95-1.97,10.39-8.53,11.01-10.32-.05-.22-.04-.28-.22-.42-.56-.43-1.47-.55-2.16-.71-4.21-.97-8.02-.71-12.26-.15-1.59-2.2-3.52-4-5.63-5.69,1.89-2.51,3.68-5.1,5.57-7.61.96-1.28,4.04-4.7,4.52-5.96l-.16-.32c-.38-.24-.69-.31-1.13-.33-3.4-.08-9.26,2-12.12,3.76-1.26.77-2.28,1.68-3.34,2.71-.62-.97-1.29-1.95-1.76-3,.17-.34.36-.66.54-.98.41-.34,2.38-.19,3.05-.3,2.96-.46,6.04-2.04,7.83-4.49.52-.71.94-1.48,1.31-2.27.95-2.01,1.62-4.12,2.47-6.17.41-1,1.02-1.93,1.38-2.94.1-.27.19-.52.13-.82-.02-.11-.17-.19-.26-.24-.64-.34-1.68.04-2.32.26-4.75,1.63-11.37,5.5-13.64,10.17-.59,1.21-1.25,3.21-1.09,4.56.04.33.24.6.31.91.1.46-.22.75-.46,1.11-.04-.07-.08-.14-.11-.21-2.49-6.07,3.1-15.56,5.78-20.97,1.23-2.5,2.4-5.03,3.5-7.59.53.48,1.07,1.01,1.64,1.44.35.26.94.6,1.38.53l.03-.25c-.51-1.34-1.73-2.23-2.78-3.13.31-.98.63-1.95.97-2.92.98.8,3.05,3.11,4.33,3.15.27-.21.24-.23.28-.56-.43-1.1-3.32-3.1-4.29-3.98.62-1.86,1.01-3.77,1.06-5.73.15-5.21-1.8-10.27-5.41-14.04-3.97-4.2-8.39-5.25-13.95-5.41-.02-.54-.21-1.03-.38-1.54.93-.29,1.87-.56,2.63-1.2.52-.43.92-1.01.97-1.7.08-1.09-.54-1.89-1.2-2.67.22-.06.43-.12.65-.18,1.2-.35,3.13-.99,3.7-2.18.14-.29.15-.61.03-.9-.29-.74-1.07-1.02-1.74-1.32,1.24-.39,5.54-1.46,6.18-2.44.18-.27.12-.35.04-.64-.57-.58-1.56-.88-2.3-1.21,1.71-.61,3.45-1.18,5.14-1.84.56-.22,1.55-.57,1.78-1.16.04-.11-.07-.27-.12-.38-1.07-.73-2.91-.59-4.18-.65,1.93-1.02,4.29-1.87,6.04-3.14.36-.26.57-.48.64-.92l-.28-.23c-1.84-.45-8.27,1.18-10.41,1.62-15.71,3.29-14.14,3.18-22.62,16.15-1.92-1.31-3.93-2.91-6.16-3.63-2.29-.74-4.03-.24-6.08.81ZM79.84,41.95c-3.97.37-7.15,2.18-9.69,5.23-.18.22-.35.44-.51.69,1.86,2.04,3.59,4.16,5.28,6.34.71.8,1.45,1.93,2.32,2.54.8-.23,1.26-1.12,1.65-1.82,1.54-2.82,3.95-8.72,2.97-11.97-.13-.45-.33-.8-.76-1.03-.44-.05-.82-.04-1.26.03ZM55.34,47.84c-.65,1-1.9,2.51-1.89,3.72.18.33.2.38.57.48.1.03.21.04.31.05.44-.91,2.05-3.02,1.73-3.93-.25-.23-.39-.29-.72-.31ZM61.02,48.13c-.86.81-2.28,2.15-2.41,3.36.11.3.14.42.47.54.1.04.21.04.32.05.49-.78,2.38-2.74,2.32-3.54-.25-.3-.31-.31-.69-.41ZM50.03,48.85c-.6.82-1.62,1.9-1.6,2.98.16.3.21.4.55.49.11.03.23.03.34.04.4-.83,1.61-2.29,1.49-3.12-.23-.28-.44-.32-.79-.39ZM44.92,50.17c-.55.92-1.51,2.48-1.26,3.58.03.14.2.28.29.4l.56.15c.26-.83,1.39-3.11,1.08-3.79-.23-.2-.38-.29-.68-.33ZM67.05,50.63c-1.01.69-2.67,1.77-3.07,2.98.05.35.05.36.32.59l.49.09c.66-.91,2.98-2.37,2.95-3.34-.27-.24-.33-.26-.69-.32ZM55.23,53.94c-.56,1.11-2.18,3.71-1.76,4.93.08.23.34.38.56.47.06.03.14.05.21.06.23-.39,1.84-4.59,1.83-4.87-.22-.36-.47-.45-.84-.59ZM71.28,54.21c-.4.17-.93.35-1.12.77-.06.13-.08.26-.1.4.19.32.21.3.58.39.34-.09.63-.2.95-.37.5-.14.77-.17,1.13-.55v-.33c-.49-.4-.83-.38-1.44-.32ZM50.71,54.27c-.69,1.04-1.51,3.07-1.27,4.34.05.26.14.33.31.53l.55.12c.47-.89.92-3.26,1.28-4.41-.08-.26-.09-.31-.33-.45-.16-.09-.34-.11-.53-.13ZM60.73,54.71c-1.12,1.1-2.68,2.9-2.73,4.54.13.27.19.44.52.5.12.02.28,0,.4-.02.62-1.49,1.44-3.04,2.62-4.17,0-.41,0-.41-.27-.71l-.55-.15ZM46.3,55.57c-.57.76-1.16,1.96-1.02,2.94.04.28.12.49.36.66.12.08.29.13.43.17.39-.59,1.08-2.6.91-3.29-.06-.24-.22-.32-.43-.41-.08-.03-.17-.05-.25-.07ZM41.7,56.46c-.1.47-.19.79.11,1.23.26.38.79.66,1.24.72.07,0,.13.01.2.02.1-.49.21-.8-.11-1.25-.26-.36-.79-.66-1.22-.71-.09,0-.12,0-.21-.01ZM64.69,56.45c-.63.53-1.58,1.11-1.66,1.98.25.25.4.38.77.43.57-.46,1.45-1,1.77-1.66-.06-.33-.05-.38-.34-.57-.17-.11-.34-.14-.54-.18ZM70.5,57.43c-.6.3-1.2.52-1.43,1.2-.07.2,0,.31.05.51.09.09.07.11.2.11.19,0,.36.03.52-.09.66-.31,1.21-.46,1.73-1,.01-.11.06-.25-.01-.33-.25-.29-.7-.36-1.06-.39ZM50.08,60.76c-.4.48-.78,1.16-.72,1.81.03.4.23.63.55.84.09.06.11.06.2.1.45-.63.74-1.41.66-2.19-.23-.35-.31-.38-.69-.56ZM54.98,61.17c-.51.94-1.42,2.17-1.24,3.26.29.35.46.34.89.45.27-.8,1.44-2.69,1.16-3.4-.3-.25-.44-.25-.81-.31ZM72.63,61.88c0,.53,0,.8.39,1.2.48.5,1.28.92,1.98.94.05,0,.09,0,.14,0,.03,0,.05,0,.08,0,.05-.39.14-.59-.12-.93-.41-.54-1.35-1.11-2.02-1.19-.12-.01-.24-.01-.36-.01-.03,0-.06,0-.09,0ZM72.27,66.71c-.11.44-.23.74.03,1.16.38.61,1.26,1.05,1.95,1.17.09.02.18.02.26.03.08-.4.18-.65-.05-1.02-.31-.48-1.28-1.17-1.85-1.3-.11-.02-.23-.04-.34-.04ZM77.12,68.17c-.11.41-.23.67,0,1.07.59,1.06,2.13,1.57,3.24,1.84.19.04.36.08.55.1.17-.36.24-.49.2-.9-.3-.26-3.76-2.1-3.99-2.11ZM39.81,69.2c-.54.59-.88,1.67-.88,2.46.18.4.22.43.6.66.52-.5,1.02-1.21,1.07-1.96.02-.33-.05-.66-.28-.89-.14-.14-.33-.21-.5-.28ZM69.92,69.64c-.08.54-.14.84.22,1.3.44.57,1.26,1.07,1.98,1.14.1,0,.19,0,.29,0,.05-.39.16-.66-.12-1-.45-.54-1.57-1.38-2.29-1.45-.03,0-.06,0-.08,0ZM43.25,71.54c-.27.7-.84,1.78-.66,2.52.31.28.42.28.82.35.44-.67.85-1.37.76-2.2-.21-.37-.29-.53-.72-.64-.06-.02-.14-.03-.2-.04ZM67.07,71.93c-.31.3-.35.29-.38.71.34.74,1.22,1.58,1.99,1.88.18.07.38.11.58.13.11-.27.28-.51.16-.81-.22-.58-1.46-1.64-2.06-1.84-.1-.03-.19-.06-.29-.07ZM76.68,73.02c-.21.37-.3.51-.29.94.22.38.58.53.98.64.81.21,1.65.3,2.47.49.18-.38.28-.47.15-.89-.81-.77-2.27-.84-3.31-1.18ZM62.6,73.61c-.15.42-.25.66-.03,1.1.3.61,1.01,1.31,1.66,1.54.13.04.26.06.39.07.19-.34.26-.4.22-.78-.4-.62-1.32-1.73-2.07-1.9-.08-.02-.1-.02-.17-.03ZM73.45,75.22c-.12.42-.18.57-.06,1,.76.79,2.16,1.6,3.26,1.7.16-.4.22-.47.07-.9-.72-.69-2.27-1.66-3.27-1.8ZM67.75,77.55c-.18.36-.31.66-.16,1.06.13.35.45.6.79.74.13.06.26.09.4.12.15-.39.32-.73.14-1.15-.14-.33-.46-.58-.79-.7-.12-.04-.24-.06-.37-.08ZM15.64,81.66c-.66,2.53.79,8.61,2.14,10.92,1.75,3.01,5.48,5.68,8.84,6.54.3.08.61.15.91.21-1.12-1.35-2.43-2.51-3.64-3.78-2.02-2.12-4.26-5.01-5.34-7.76-.16-.41-.48-1.11-.42-1.55.03-.2.15-.39.25-.56,1.19.72,1.81,3.14,2.58,4.37.9,1.44,5.78,8.16,7.45,7.81.25-.35.19-.73.12-1.14-.84-4.89-5.19-8.74-8.71-11.89-1.08-.97-2.17-2.04-3.36-2.87-.25-.18-.45-.26-.75-.31-.02,0-.05,0-.07-.01ZM91.32,86.48c-.05.18-.15.42-.17.6-.06.58,1.5,3.29,1.87,3.94.25.44.47.96.88,1.27l.54.06c.26-.57.15-.89-.06-1.46-.47-1.22-1.33-3.51-2.39-4.32-.22-.03-.44-.08-.66-.1ZM99.24,87.51c-.13.36-.29.63-.14,1.01.37.91,2.64,3.39,3.5,3.65.14.04.28.07.43.08.11-.48.26-.75-.03-1.2-.53-.84-2.55-3.34-3.53-3.52-.13-.02-.12-.02-.23-.03ZM90.01,93.81c-.3.86-.01,1.25.36,2.04.34.72,1.43,3.21,2.19,3.47.12.04.24.07.37.09.2-.4.32-.69.17-1.13-.45-1.32-1.46-3.45-2.52-4.33l-.58-.13ZM96.61,94.54c-.16.42-.3.65-.09,1.1.52,1.12,1.63,2.98,2.66,3.68l.5.08c.19-.53.24-.75,0-1.29-.42-.91-1.62-3.07-2.55-3.47-.16-.07-.33-.09-.5-.11ZM101.59,94.95c-.16.79-.06,1.03.38,1.7.44.67,1.59,2.4,2.39,2.58.11.03.23.04.34.05.16-.5.27-.75,0-1.25-.41-.78-1.75-2.79-2.61-3.02-.16-.04-.34-.05-.51-.06ZM107.89,95.11c-.18.29-.38.49-.28.86.22.85,2.11,3.06,2.87,3.47.1.05.19.09.3.12.03,0,.05.02.08.03.05.02.11.04.17.05.18-.31.37-.52.27-.9-.22-.85-2.2-3.12-2.93-3.47-.11-.05-.22-.09-.34-.12-.05-.01-.09-.03-.13-.04ZM14.81,97.5c-.49,1.32.8,4.62,1.39,5.91,2.62,5.7,9.08,7.36,14.13,10.29-1.47-2.32-3.09-4.42-5.2-6.2-2.54-2.13-5.33-3.79-7.42-6.43.28-.26.37-.41.77-.45.89.76,1.62,1.7,2.53,2.44,4.04,3.29,7.01,4.84,10.19,9.45-.78-2-1.45-4.08-2.78-5.8-1.54-1.99-10.4-7.98-12.84-9.04-.24-.1-.5-.15-.76-.18ZM96.32,100.69c-.23.56-.27.78-.04,1.35.46,1.1,1.73,4.61,2.74,5.02.1.04.2.07.31.1.06-.17.21-.49.21-.66.02-1.1-1.03-3.06-1.54-4.05-.29-.56-.6-1.16-1.08-1.59-.2-.06-.4-.12-.61-.16ZM89.26,101.15c-.25,1.1,1.17,4.62,1.77,5.61.08.14.25.37.42.41.27.05.46.04.72-.02.22-1.15-1.17-4.54-1.83-5.56-.12-.18-.25-.31-.45-.4l-.62-.04ZM102.72,101.15c-.26,1.09.48,2.03,1.04,2.95.5.8,1.39,2.35,2.33,2.6.04.01.09.02.13.03.11-.25.32-.62.24-.89-.27-.91-2.4-4.16-3.12-4.61l-.62-.08ZM108.35,101.42c-.33.9-.14,1.24.25,2.08.33.7,1.3,2.68,2.06,2.93.13.04.25.07.38.09.18-.38.34-.59.19-1.03-.4-1.19-1.36-3.06-2.29-3.9l-.59-.17ZM86.94,109.04c-.25.95,1.42,5.18,1.97,6.15.08.15.18.23.31.33.22.01.44.03.66.02.43-1.28-.84-3.96-1.44-5.16-.23-.46-.45-.92-.86-1.24-.21-.03-.43-.08-.65-.09ZM102.49,109.47c-.18.39-.28.66-.13,1.09.4,1.1,2.34,4.66,3.36,5.11.13.06.26.06.4.05.13-.27.4-.62.29-.91-.22-.59-3.17-5.14-3.5-5.26-.14-.05-.28-.07-.42-.09ZM96.18,109.78c-.34.75-.24,1,.05,1.76.51,1.35,1.09,3.4,1.98,4.51.2.08.39.16.61.2.28-.49.35-.69.2-1.27-.34-1.28-1.33-4.22-2.29-5.07l-.55-.14ZM92.42,116.69c-.25.38-.44.58-.35,1.08.22,1.2,1.01,3.99,1.92,4.8l.55.13c.48-.96,0-1.87-.32-2.84-.23-.69-.82-2.68-1.47-3.02-.03-.01-.05-.02-.08-.04-.03-.01-.05-.02-.08-.04-.08-.04-.07-.03-.17-.07ZM87.53,123.83c-1.68,5.23-1.4,14.32,1.09,19.2.29.56.62,1.28,1.27,1.46.1.03.22.03.32.04.06-.18.17-.43.19-.61.06-.49-1.71-4.62-1.97-5.59-.77-2.85-.8-5.9-.54-8.83.1-1.08.86-4.67.54-5.36-.28-.26-.54-.27-.9-.31ZM94.45,126.75c-.42.92-.21,1.28.13,2.21.31.84,1.06,3.07,1.85,3.41.06.03.12.05.18.07.25-.38.42-.59.31-1.08-.21-.94-1.23-3.97-1.96-4.41-.15-.09-.34-.15-.51-.2ZM108.91,134.38c-.26,1.16.72,2.64,1.33,3.6.28.45.57.98,1.03,1.26.21,0,.41.01.62-.01.24-1.27-.83-2.78-1.54-3.81-.46-.67-.62-.89-1.44-1.05ZM102.11,134.81c-.22.36-.43.58-.32,1.03.21.93,1.87,5.27,2.62,5.67.09.05.17.08.26.12.26-.39.43-.59.32-1.09-.24-1.07-1.69-5.03-2.49-5.55-.12-.08-.26-.13-.4-.18Z"/>
    <path d="M224.06,19.01c2.05-1.05,3.79-1.55,6.08-.81,2.23.72,4.24,2.32,6.16,3.63,8.48-12.97,6.9-12.85,22.62-16.15,2.14-.45,8.58-2.08,10.41-1.62l.28.23c-.07.44-.29.65-.64.92-1.74,1.27-4.11,2.13-6.04,3.14,1.27.06,3.11-.08,4.18.65.05.1.16.27.12.38-.24.6-1.23.95-1.78,1.16-1.69.66-3.43,1.24-5.14,1.84.74.32,1.73.63,2.3,1.21.08.29.14.37-.04.64-.64.98-4.95,2.05-6.18,2.44.67.3,1.44.59,1.74,1.32.12.3.1.61-.03.9-.57,1.2-2.5,1.83-3.7,2.18-.22.06-.43.13-.65.18.66.78,1.28,1.58,1.2,2.67-.05.69-.45,1.26-.97,1.7-.76.64-1.7.91-2.63,1.2.17.51.36,1,.38,1.54-.33,1.8-.97,2.89-2.5,3.95-.09.06-.18.12-.27.18,1.88,1.92,3.61,4,5.16,6.19.58.83.95,1.93,1.64,2.66,1.53,1.63,3.41,3.04,5.11,4.48l9.16,7.71c.98.88,3.87,2.88,4.29,3.98-.05.33-.01.35-.28.56-1.28-.03-3.34-2.34-4.33-3.15l-10.41-8.85c-1.54-1.29-3.11-2.88-4.79-3.94-.56.05-.83.64-1.4.77.62,1.49,13.78,13.34,15.63,14.94,1.05.91,2.27,1.79,2.78,3.13l-.03.25c-.44.07-1.03-.27-1.38-.53-.57-.43-1.11-.96-1.64-1.44-5.23-4.41-10.16-9.34-15.02-14.15-.48-.52-.99-1.21-1.66-1.48l-.19.11c.16.68.81,1.22,1.27,1.73,2.71,3.11,5.61,6.2,8.53,9.13,1.28,1.29,3.13,2.67,4.18,4.08.21.28.24.62.23.96l-.16.28c-.41.06-.63-.03-.96-.29-1.29-1-2.43-2.49-3.58-3.67-3.91-4.01-7.82-8.09-11.39-12.4l-2.48-.83c.34.63.67,1.25,1.08,1.84.46.1.86-.09,1.24.18.06.37.08.39-.11.71-.86.5-2.34.78-3.06,1.38-.69.57-1.1,1.83-2.1,1.83-.13-.14-.26-.21-.25-.41.02-.7,1.05-1.82,1.49-2.3-.83-.22-1.66-.44-2.51-.57.05.93.26,1.97.02,2.87-.25.25-.25.23-.6.24-.33-.28-.3-.49-.38-.9l-.24-2.57c-1.05-.29-2.06-.7-3.07-1.09,1.23,1.68,2.12,1.32,2.7,3.44.13.6.4,1.35.07,1.91-.76,1.26-4.06,3.9-5.42,4.51-1.9,3.31-4.46,6.01-7.05,8.78,3.02-.03,6.42-.04,9.36-.75,1.61-.39,3.2-1.31,4.84-1.45.68-.06,1.25.09,1.75.57.48.47.77,1.18.77,1.85,0,.72-.31,1.29-.82,1.78-2.86,2.75-12.1,3.91-16.22,4.19-2.61.18-5.37.04-7.92.61-8.3,1.87-17.79,10.06-18.6,18.94,2.12.33,3.75.9,5.61,1.95,1.7-3.89,4.35-7.92,8.47-9.54.93-.36,1.9-.59,2.89-.71,1.33-.16,2.68.01,4.02-.03,1.16-.04,2.31-.3,3.46-.32.3,0,.6,0,.88.11.19.08.21.18.27.37.27.76.18,1.77.16,2.56-.08,3.2-.56,6.1-2.02,8.99-2,3.96-5.44,6.72-9.64,8.09-1.18.39-2.47.67-3.71.74-.06,2.47-.92,4.68-1.02,6.99-.08,2.05-.02,4.11-.08,6.16-.35,10.84-2.84,11.68-8.88,20-.07,2.42-.33,4.72-2.2,6.49-1.25,1.18-2.89,1.83-4.54,2.25l-.2,1.94c-.41.06-.65.09-1.04-.11-.28-.54.14-1.5-.17-1.78-2.38-.17-4.68-.74-6.31-2.64-.86-1-1.34-2.2-1.69-3.46-2.35-2.08-4.61-4.25-6.93-6.36-2.1-1.91-4.7-3.86-6.34-6.19-1.17-1.68-1.92-3.67-2.67-5.56-2.42,8.19-7.01,15.34-13.17,21.21.36.76,2.04,3.76,2,4.38l-.19.28c-.37.06-.51.08-.83-.15-.71-.48-1.96-3.56-2.4-4.51-1.86-3.91-3.59-7.88-5.19-11.91-1.68-4.16-3.32-9.43-5.83-13.06-4.69-6.79-13.25-10.13-21.31-9.13-5.83.72-9.41,3.11-12.95,7.66-.65.84-1.3,1.69-1.94,2.54,1.51.59,2.39,1.36,3.05,2.86.13.31.26.62.39.93,2.92-2.56,6.64-6.41,10.88-6.17,1.68.1,3.1,1.01,4.19,2.25,3.16.58,5.46,2.04,7.29,4.71,1.35,1.98,2.08,4.33,1.63,6.73-.42,2.24-1.89,4.02-3.76,5.25-1.66,1.1-3.6,2.16-5.49,2.8-3.05,1.04-6.2,1.44-8.94,3.26-1.68,1.12-2.3,3.13-2.83,4.97-.07.24-.17.89-.3,1.08-.16.21-.35.16-.58.16-.39-.41-.41-.82-.4-1.37.11-3.39,1.35-9.67-1.05-12.3-1.2-1.32-2.78-1.91-4.54-1.97l-2.24-.07c.55.88,1.01,1.53,1.01,2.6l-.27.15c-1.16-.5-1.65-1.71-2.24-2.74-1.05-.08-2.02-.15-3.06.03-.16.71-.28,2.64-.85,3.01-.18.12-.26.07-.47.04-.97-.84-1.39-2.94-1.48-4.19-.19-2.46.93-5.28,2.52-7.14,1.47-1.71,3.59-2.82,5.23-4.39,2.64-2.54,4.38-5.85,7.28-8.15,1.18-.94,2.43-1.54,3.7-2.31-.51-.87-2.18-2.78-2.15-3.66.25-.3.24-.34.62-.39,1.16.49,2.21,2.43,2.75,3.54,1.45-.32,2.89-.69,4.36-.92-2.36-3.09-7.6-7.41-10.66-10.14l-11-9.89c-7.16-6.48-13.07-12.02-18.43-20.13-.01,1.59.29,3.2.47,4.78.2,1.79.32,3.59.37,5.39.36,11.7-1.99,24.65-8.96,34.31-.36.16-.42.15-.81.09-.17-.24-.19-.27-.14-.57.15-.87,1.15-1.92,1.59-2.7,1.23-2.19,2.4-4.45,3.31-6.8,4.97-12.82,4.15-25.51,2.07-38.79,3.69-5.14,5.76-11.32,4.73-17.69-.23-1.43-.66-3.78-1.93-4.65-1.37-.95-3.78-.59-5.33-.28-5.7,1.17-9.09,5.16-12.78,9.28-7.51-1.95-11.38-1.41-18.71.56-2.1-3.14-4.59-5.38-7.86-7.27-.98-.56-2.1-1.18-3.21-1.4-.54-.11-1.15-.09-1.62.22-1.11.74-1.53,2.42-1.76,3.66-.72,4.06.63,8.24,2.96,11.56.82,1.17,1.77,2.25,2.69,3.32.97-2.75,2.07-5.71,3.56-8.22-1.46-1.19-3.02-2.25-4.65-3.19-.81-.47-1.76-.87-2.5-1.42-.29-.22-.34-.28-.42-.63.18-.34.2-.4.54-.56,2.02.42,7.11,4.12,8.59,5.59-1.33,2.07-2.39,4.56-3.26,6.86-3.72,9.77-1.45,14.7-.53,24.39.81.08,1.82.05,2.39.71.05.06.08.11.13.17l-.06.25c-.76.42-1.41.22-2.21.06.19,1.02.41,1.99.74,2.97,1.4-.37,2.71-.95,4.04-1.51-1.37-4.71,1.88-10.07,3.28-14.47-2.27.43-5.07.31-7.03-1.04-1.1-.76-1.82-1.88-2.05-3.19-.11-.6-.33-1.85.03-2.37.55-.78,1.96-1.24,2.87-1.32,1.79-.15,3.56.43,4.92,1.59,1.43,1.24,2.3,3.21,2.43,5.09.18,2.54-2.91,8.68-3.53,12.09,2.32-.62,8.67-1.45,10.75-.3.52.29,1.03.82,1.21,1.4.16.53-.03,1.12-.31,1.58-.87,1.45-2.24,2.54-3.61,3.48-.49.33-1.14.68-1.52,1.14-.24.29-.28.52-.21.88.22,1.13,2.38,2.67,3.34,3.26,1.33.82,2.96,1.52,4.54,1.12,1.08-.27,2.23-1.03,3.03-1.8-1.32-.53-4-.86-4.8-1.96l.02-.28c.49-.31,1.33-.1,1.87.02,1.41.32,2.91.87,4.21,1.49.39-1.02.6-1.97.69-3.07-1.35-.4-4.63-.54-5.47-1.46l-.07-.27c.39-.34,1.02-.28,1.5-.25,1.25.08,2.49.41,3.73.61-.2-.94-.36-1.91-.77-2.79-.67-.32-.97.29-1.39-.6.24-.67,1.03-.54.59-1.47-2.35-4.96-6.19-6.63-4.03-13.2.64-1.95,2.05-3.93,3.93-4.87,1.9-.96,4.4-1.76,6.5-1.02.39.14.73.34.9.74.42.99-.44,3.19-.89,4.15-.66,1.38-1.62,2.4-3.08,2.91-1.36.47-2.91.59-4.33.62-.56.01-1.23-.06-1.77.06-.35.08-.4.13-.59.42-.52,3.61,3.38,7.7,5,10.69,1.62-.12,11.09-.78,12.24.07.18.33.18.34.11.71-.09.06-.22.17-.32.2-.67.23-2.95-.05-3.75-.07-2.62-.07-5.27.09-7.87.33.3,1.15.62,2.3.85,3.46,1.94.5,9.37,2.62,10.14,3.91.07.11-.04.35-.07.48-.17.15-.21.24-.45.23-1.28-.08-3.62-1.47-4.94-1.97-1.46-.54-2.94-1.01-4.44-1.42.56,1.64,1.09,3.26,2.28,4.57,1.15,1.27,5.16,3.09,5.67,4.39.1.27.04.36-.06.62-.3.14-.41.15-.73.03-.93-.35-1.95-1.4-2.81-1.95-1.99-1.29-4.09-2.5-6.27-3.43-2.44,2.61-5.07,6.59-8.16,8.15,1.27,2.16,2.41,4.39,3.63,6.57,1.27,2.27,2.72,4.53,3.68,6.95,1.31,3.29,1.73,7.11,2.48,10.58.66,3.06,1.56,6.08,2.46,9.08.59,1.99,1.24,3.96,1.95,5.91.44,1.22,2.3,5.6,2.39,6.55l-.12.35c-.39.16-.54.12-.94.06-2.88-6.89-5.08-13.87-6.85-21.13-.86-3.5-1.2-7.26-2.46-10.63-1.32-3.54-3.59-6.92-5.44-10.22-.59-1.26-1.27-2.47-2.02-3.64-1.32.23-2.67.36-3.99.03-2.41-.61-5.06-2.75-6.47-4.76-1.15-1.64-2.04-3.6-3.09-5.33-1.43.92-2.85,1.98-4.14,3.07-.85.72-1.7,1.76-2.67,2.3-.38-.01-.4-.01-.68-.27v-.38c.9-1.79,5.26-4.92,7.13-5.81l-1-2.21c-2.54.63-5.45,1.26-7.77,2.52-.85.46-1.54,1.2-2.39,1.66-.36.2-.51.17-.87.05-.21-.31-.21-.33-.19-.71,2.25-2.75,7.58-3.91,10.89-4.63-.4-1.08-.65-2.24-1.01-3.35-2.32-.11-4.64-.07-6.96.14-1.86.17-3.8.55-5.66.41l-.19-.33.1-.3c1.33-1.17,10.51-1.12,12.6-1.12-1.04-7.06-2.46-14.55-.68-21.59-1.14-1.21-2.19-2.5-3.14-3.87-2.58-3.79-3.98-8.25-3.08-12.84.34-1.72,1.12-3.32,2.61-4.31,2.63-.6,5.19.89,7.35,2.25,2.58,1.62,4.44,3.61,6.29,6,5.86-1.87,11.66-2.12,17.63-.56,3.81-4.51,8.38-8.81,14.59-9.32,1.5-.12,3.69-.2,4.9.81,1.91,1.61,2.37,4.64,2.54,7,.44,6.04-1.42,11.48-4.69,16.49,4.45,9.71,12.87,16.95,20.66,23.96l11.52,10.39c3.37,3.03,7.21,6.06,9.87,9.75,6.7-.43,13.04,1.45,18.12,5.93,5.24,4.62,6.91,10.98,9.44,17.23,1.52,3.71,3.12,7.39,4.78,11.04,5.84-4.97,10.34-12.79,12.5-20.12.4-1.35.81-2.72.93-4.13.39-4.59-.29-9.36.33-13.93-3.99-.12-7.49-1.88-10.22-4.77-2.92-3.08-4.35-7.4-4.22-11.62.04-1.32.24-2.61.48-3.91,5.48-.01,11.03-.39,15.22,3.78,1.95,1.94,3.3,4.41,4.37,6.91,2.69-1.69,5.19-2.15,8.33-2.18-1.25-6.68-5.24-11.6-10.75-15.38-9.65-6.62-19.01-2.25-28.66-7.48-.21.6-.36,1.47-.97,1.77-.19.09-.21.05-.41,0-.21-.9.59-2.4-.16-3.01-.31.09-.37.15-.52.44-.35.69-.41,1.72-.96,2.27-.38.04-.42.06-.73-.15-.18-.62.07-1.17.32-1.72.37-.87.95-1.61,1.4-2.45-.72.6-1.37,1.2-1.98,1.89-.27.46-.57,1.12-.96,1.47-.26.23-.48.38-.82.37-.04-.13-.06-.25-.06-.39.04-1.37,1.47-2.85,2.38-3.77-.7-.02-1.41.06-2.11.11-2.32,1.47-2.18,3.74-3.7,4.92l-.23-.04c-.03-.05-.05-.08-.07-.13-.29-.66.21-1.72.43-2.36.47-.98,1.08-1.83,1.72-2.71-.92.6-1.66,1.22-2.36,2.06-.44.65-1.04,2.4-1.78,2.6-.29-.15-.32-.13-.45-.45.07-.58.3-1.06.54-1.58.4-.51.73-1.18,1.07-1.74-.6.45-1.14.96-1.7,1.46-.65.71-1.32,2.51-2.11,2.88-.31-.12-.35-.18-.56-.45-.03-.2-.02-.38.04-.57.2-.64.65-1.26,1.05-1.79,2.06-2.8,3.61-2.17,6.23-3.49-.39-.91-.66-1.81-.71-2.81-.1-2.17.79-3.99,2.2-5.56-3.68-2.01-7.42-4.58-10.23-7.72-3.79-4.24-5.12-8.52-4.8-14.15.23-1.92.75-3.81.94-5.73.39-3.88-.7-7.41,2.92-10.24,1.84-1.44,4.06-2.06,6.38-1.75,2.28.31,4.33,1.53,5.69,3.37,2.28,3.08.27,5.81,3.25,7.95.76.54,1.59.9,2.51,1.04,1.55.23,3.12-.22,4.69.03,7.49,1.18,14.18,6.41,18.66,12.31,1.16,1.55,2.26,3.14,3.31,4.77,1.11,2.06,2.46,4.05,3.68,6.05,1.17,1.91,2.28,3.98,3.63,5.76.83,1.09,1.04.23,2.17.4,2.44.37,2.61,8.18,3.52,10.21.89,1.99,3.05,4.45,4.36,6.27-1.16,0-2.34-.11-3.5-.18.3,1.58.32,3.43.86,4.93.39,1.08,1.06,2.13,1.59,3.15,1.29,2.48,2.11,4.83,2.43,7.61,1.45-.11,2.91-.08,4.36,0,.46-2.69,1.12-5.45,2.36-7.9.65-1.28,1.62-2.49,2.01-3.88,1.14-3.97,2.16-17.49,4.34-19.78.3-.31.68-.58,1.13-.57.5.01.96.32,1.28.68,1.37,1.57.2,10.78.01,13.23,2.19-1.41,4.39-2.83,6.69-4.07,1.69-.91,3.46-1.64,5.15-2.53,3.08-1.62,6.26-3.8,8.87-6.12.38-1.54,1.04-3.6,2.01-4.86.4-.52,1.24-1.21,1.49-1.78.14-.3-.17-.63-.27-.92-.12-.35-.07-.65.12-.97.18-.3.43-.46.76-.55.25-.07.5-.13.75-.2.96-.68,1.62-3.31,2.04-4.43-5.75-2.76-11.45-4.98-11.13-12.42.09-2.16.25-3.22-.88-5.18-1.04-.02-2.35,0-3.31-.41-.42-.18-.68-.35-.86-.79.02-.15.02-.35.11-.48.74-1.13,2.57-1.37,3.78-1.64.65-.73,1.33-1.36,2.09-1.98ZM228.33,29.53c-.37-1.96.07-3.79,1.21-5.43.15-.22.35-.47.62-.54.36.14.35.22.52.57-.45,1.92-1.86,3.23-1.05,5.37,1.7,4.08,7.05,5.74,10.83,7.45-.34-.34-.91-.8-.95-1.3l.15-.37c.47-.08.74.07,1.13.34,1.19.83,2.26,1.99,3.32,2.99,3.21.43,6.41,1.22,9.6,1.82-1.09-1.73-4-5.95-5.57-7.06-.72-.81-1.46-1.59-2.24-2.34-3.37-3.28-11.42-9.73-15.52-11.42-.87-.36-1.79-.57-2.73-.54-1.74.05-3.45,1.16-4.62,2.41-.29.32-.43.55-.41.98.77,1.13,3.01.69,4.11,1.44.1.33.1.33-.05.64-.82.45-2.04.03-2.91-.14.86,1.78.68,3.47.59,5.38,0,.36.02.73.04,1.09.14,2.04.89,4.15,2.48,5.51,2.45,2.1,11.7,6.72,14.92,7.25,1.55.26,3.21-.07,4.76-.19-.96-1.2-1.82-2.51-2.7-3.77-.68-.21-1.35-.49-2.01-.77-3.52-1.55-9.48-3.8-11.97-6.6-.76-.85-1.15-1.72-1.55-2.77ZM127.45,16.98c-.55.78-.92,1.6-1.1,2.54-.28,1.48.1,3.03-.03,4.53-.21,2.37-.86,4.71-1.1,7.09-.07,5.7,1.03,9.26,5.1,13.43,4.71,4.83,11.82,8.83,18.26,10.84-1.09-1.22-2.25-2.36-2.15-4.13.03-.59.19-1.01.64-1.4.59-.5,1.56-.64,2.31-.57,2.93.29,3.78,2.67,5.96,3.89,2.39,1.34,5.62,1.95,8.27,2.72-2.42-3.36-4.94-6.65-7.36-10.02-.88-1.23-1.86-2.45-2.65-3.73-.54-.77-2.2-2.71-2.09-3.6l.21-.23c.52.04.78.3,1.11.7.97,1.15,1.65,2.55,2.65,3.66,3,4.42,6.33,8.6,9.37,12.98,1.29.58,2.57,1.13,3.9,1.62-3.47-4.39-7-8.89-10.15-13.52-.72-1.04-1.62-2.12-2.19-3.24l.1-.35c.19-.09.24-.15.45-.07,1.15.48,3.03,3.7,3.95,4.81,3.24,4.82,6.93,9.4,10.45,14.02,1,.33,2.04.75,3.07.93-3.48-4.78-6.96-9.55-10.57-14.24-.7-.97-1.49-1.88-1.65-3.1l.15-.09c1.36.58,2.43,2.42,3.33,3.56,3.45,5.03,7.36,9.77,10.85,14.79,1.22.46,2.37.97,3.53,1.57-.89-1.46-1.96-2.84-2.95-4.24-1.83-2.64-3.7-5.25-5.62-7.83-1.1-1.48-2.15-3.2-3.43-4.53.19-.37.23-.45.58-.67.41,0,.62.14.95.36.1.61,9.11,12.7,10.21,14.5-.14-1.2-.25-2.37-.24-3.58-2.42-4.27-5.21-8.4-7.78-12.58-2.37-4.79-7.12-10.08-11.47-13.04-3.55-2.42-8.73-5.02-13.15-4.18-.75.99-1.3,1.97-1.52,3.22-.18,1.02-.11,2.06.2,3.04.63,2.02,3.33,6.18,4.62,8.02,1.18,1.9,3.7,5.03,4.36,6.97-.1.37-.13.4-.42.65-1.06-.28-5.06-7.17-5.93-8.5-1.3-1.95-2.97-4.33-3.72-6.55-.82-2.42-.27-4.8.84-7-.22-.04-.44-.08-.65-.12-6.03-1.28-3.67-5.69-6.07-9.4-.55.31-1.07.62-1.58,1,.42.28.91.63,1.14,1.09.16.34.18.71.06,1.06-.16.47-.52.96-.98,1.17-.96.43-1.39-.6-2.12-.87-.1-.04-.21-.07-.31-.02-.9.54-1.03,3.31-1.3,4.26-.1.34-.25.41-.54.56-1.15-.79-1.1-3.44-1.84-4.68-.44-.13-1.04.77-1.87.8-.37.01-.81-.1-1.08-.38-.33-.35-.41-.86-.37-1.33.07-.82.5-1.19,1.09-1.71l-1.76-.9ZM158.05,57.78c-2.14-1.87-3.96-4.41-6.24-6.04-.81-.58-2.09-1.41-3.12-1.21-.24.05-.24.05-.38.25.45,1.99,2.86,4.32,4.22,5.81,2.53,2.81,5.71,4.77,8.42,7.34-3.44-.06-6.85-.1-10.25-.73-1-.18-2.02-.37-3-.64-.71-.19-1.51-.66-2.23-.69-.36-.01-.7.06-.97.31-.26.25-.36.68-.35,1.02,0,.16.13.35.25.46,5.53,4.65,17.98,2.96,24.9,5.46,3.11,1.12,5.94,3.13,8.44,5.26,4.41,3.75,6.9,8.49,8.02,14.11.97.25,3.08.99,3.98.47.14-.08.19-.32.23-.46.17-.69-.02-1.68-.13-2.38-.37-2.42-1.12-4.55-2.27-6.7-.6-1.13-1.33-2.23-1.66-3.47-.62-2.33-.79-4.94-1.17-7.33-.46-2.95-1.11-5.88-1.71-8.81-.21-1.02-.32-2.64-.92-3.48-.24-.33-.38-.46-.77-.59-.28.2-.35.35-.4.69-.26,1.79.72,12.55,1.11,14.75-3.06-2.28-6.2-4.46-9.63-6.16-1.82-.9-3.77-1.52-5.64-2.32-3.13-1.34-5.95-3.01-8.76-4.93ZM166.18,60.53c-2.93-2.29-5.68-4.42-9.35-5.38,2.76,2.35,5.59,4.07,8.79,5.76l2.04.86c-.46-.45-.98-.84-1.48-1.24ZM264.97,5.77c-3.93.64-15.01,2.77-18.1,4.47-1.5.82-2.74,2.09-3.73,3.46-1.64,2.27-4.61,6.39-5.74,8.81,3.54,2.4,7.87,5.86,10.7,9.06.39-.26.8-.51,1.17-.79.62-.58,1.15-1.22,1.17-2.11.02-1.02-.94-2.11-.21-2.96.96-.42,3.05-.36,3.43-1.48.13-.39.1-.86-.09-1.22-.47-.86-1.73-1.03-1.62-2.14,1.12-1.2,4.41-.95,4.99-2.48-.65-.69-2.85-.87-3.03-1.79.7-1.07,5.49-2.12,6.89-2.69-.76-.3-2.47-.75-2.83-1.49.3-.66,1.01-.91,1.65-1.16,1.6-.61,3.26-1.08,4.86-1.69-1.11-.03-3.08.16-3.94-.58-.06-.16-.15-.29-.07-.45.47-.93,4.08-1.89,4.7-2.75h-.2ZM132.36,14.11c-1.71.31-2.89.83-4.22,1.97,3.96,1.51,4.65,5.26,5.12,5.51l.35-.9c.92-2.14,2.29-3.69,4.49-4.57l.13-.05c-1.78-1.41-3.56-2.17-5.87-1.96ZM245.52,40.08l.74,1.02c1.25.49,3.87,1.88,5.13,1.34.09-.04.18-.08.27-.12l.2-.94c-1.03-.54-5.07-1.22-6.34-1.3ZM235.29,42.42l-1.09,2.71c.6-.1,1.52-.07,2.06-.28l1.57-1.2c-.82-.48-1.66-.85-2.53-1.23ZM237.98,44.94c-.8.59-1.58,1.19-2.34,1.82.39.74.76,1.5,1.35,2.1.78-.76,1.59-1.52,2.32-2.33-.31-.4-.9-1.39-1.34-1.6ZM240.14,47.27c-1.08,1.16-2.71,3.24-4.24,3.71l-.38-.06c-.15-.26-.18-.28-.14-.6.15-.17.56-.53.55-.75-.01-.31-.41-.81-.57-1.08l-.11.07c.02.43.1.84-.16,1.21-.38.14-.61.15-.99-.02-.49-.22-.97-.47-1.45-.72-1.27,1.15-2.38,2.28-3.12,3.86-.12.29-.36.63-.24.92,1.31-.78,2.72-3.54,4.37-3.2.54.11.85.55,1.11,1,.21.36.35.77.77.94,1.19-.04,3.72-2.54,4.5-3.38.26-.28.44-.42.44-.82,0-.33-.14-.8-.32-1.08ZM233.14,51.65c-3.85,4.32-8.37,7.97-13.4,10.83-2,1.15-4.14,2.01-6.17,3.1-3,1.6-5.76,3.51-8.5,5.51.26-1.92,1.63-13.89.7-15.04-.18-.23-.28-.2-.55-.22-.44.23-.6.55-.74,1.01-1.18,3.98-1.89,9.69-2.62,13.88-.22,1.27-.38,2.6-.71,3.85-.37,1.42-1.16,2.73-1.82,4.03-1.33,2.61-2.1,4.91-2.56,7.83-.11.72-.37,1.85-.05,2.53.71.4,1.91.13,2.66-.07.5-.14,1.02-.28,1.45-.57l.08-.3c1.57-7.18,5.05-12.14,11.28-16.12,2.48-1.59,5.3-3.05,8.19-3.69,2.39-.52,4.96-.49,7.4-.62,4.56-.25,9.48-.92,13.76-2.54,1.14-.43,2.77-.93,3.09-2.29.06-.24.05-.42-.03-.65-.25-.32-.52-.44-.91-.49-1.43-.18-4.46,1.37-6.18,1.63-3.67.56-7.55.49-11.26.5,1.44-1.59,8.11-8.24,8.35-9.93-.38-.51-.73-.88-.81-1.53,0-.06-.04-.18-.05-.24-.02-.11,0-.15-.1-.21-.19-.12-.29-.17-.51-.18ZM140.11,53.11c-1.25,1.17-2,2.7-2.06,4.43-.04,1.26.32,2.5,1.03,3.54.94-.02,4,.17,4.65-.12.5,0,.85.08,1.25-.22.5-2.05-.8-2.17.97-4.93-1.96-.85-3.86-1.92-5.84-2.7ZM147.1,56.24c-.81.99-1.1,1.95-.96,3.24.05.47.17.94.28,1.41l.02.09c3.38,1.12,6.91,1.71,10.46,1.76h.45c-.15-.5-4.92-4.53-5.69-4.94-1.38-.74-3.1-1-4.57-1.55ZM66.61,61.6c-.14.73.43,2.1.84,2.71.08.12.17.23.26.34l.25.03.18-.29c.23-.89.43-1.77.58-2.68-.7-.05-1.42-.14-2.12-.1ZM40.09,61.62c-.47.49-.55.84-.51,1.54.02.37.17.63.36.94.35.17.47.07.84-.03.43-.46.8-.86.77-1.54-.01-.27-.13-.39-.27-.62-.42-.29-.69-.3-1.19-.29ZM46.5,63.85c-.12.48-.22,1.03-.44,1.48-.23.48-1,1.31-.97,1.81.39.17.81.11,1.23.08.41-.05.82-.12,1.23-.16-.15-1.03-.35-2.42-1.05-3.22ZM60.85,64.7c-.83,1.02-1.12,2.06-1.45,3.3.77-.02,1.73.05,2.48-.14.44-.01.86-.05,1.29-.11-1.12-.99-1.61-1.76-2.31-3.05ZM51.59,79.31c-2.26.09-4.37.17-6.5,1.03,1.64.64,3.95,1.74,4.69,3.45.09.21.16.42.23.63.4,0,.97.1,1.25-.24.38-.47.6-1.16.95-1.67.74-1.1,2.46-1.73,3.61-2.37-.19-.34-.38-.41-.75-.51-1.03-.3-2.42-.37-3.48-.31ZM157.5,80.99c-.45,4.8.04,9.01,3.23,12.84,2.64,3.17,5.81,4.5,9.82,5.04-3.91-2.24-7.65-4.84-8.88-9.44-.35-1.3-.41-2.57-.39-3.91l.24-1.46c3.42-.04,6.24.28,8.82,2.78,1.63,1.59,2.65,3.69,3.52,5.77l1.27-1.2c-1.8-3.97-3.85-7.92-8.2-9.54-2.92-1.08-6.34-.91-9.42-.87ZM224.96,81.09c-5.48.41-8.57-.6-12.62,4.12-1.55,1.81-2.68,3.88-3.44,6.13l1.26,1.16c1.15-3.19,2.62-5.75,5.8-7.25,2.01-.95,4.14-1.13,6.33-.88.21,1.62.23,2.94-.04,4.55-1.26,4.23-3.8,7.07-7.68,9.16-.89.48-1.82.91-2.73,1.35,4.13-.34,8.33-2.11,11.05-5.3,3.13-3.68,4.14-8.43,3.8-13.15l-1.72.11ZM44.77,83.63c-1.32.57-2.63,1.14-4.03,1.49l.77,1.77c.47-.31.9-.65,1.49-.68l.4.13c.12.32.15.44-.03.76-.22.42-.96.71-1.37.92.61,1.33,1.31,2.57,2.17,3.75,2.27-.5,3.86-1.7,5.1-3.64.32-.5.53-1,.72-1.56-1.25-.52-2.51-1.04-3.67-1.75-.44-.27-1.11-1.13-1.54-1.2ZM162.54,85.27c-.2,3.19.77,5.87,2.89,8.27,1.53,1.73,3.42,2.95,5.5,3.91l.5-1.12c.44-.9.91-1.76,1.44-2.61-.95-3.02-2.6-6.01-5.51-7.53-1.56-.82-3.09-.98-4.82-.92ZM219.96,85.46c-2.66.32-5.02,1.28-6.73,3.45-1.14,1.45-1.77,3.16-2.13,4.96.26.61,1.13,3.57,1.44,3.83,3.43-1.41,6.47-3.8,7.91-7.28.45-1.09,1.26-3.32.77-4.45-.09-.21-.17-.35-.38-.44-.24-.11-.61-.07-.88-.06ZM191.19,87.65c-.01.73.06,1.71-.52,2.26-.52.49-1.48.41-2.14.35-1.25-.12-2.48-.46-3.73-.62-3.14-.38-6.29.54-8.75,2.53-2.46,2-3.89,4.76-4.51,7.84,3.63,1.51,9.07,3.49,11.73,6.45,1.04,1.15,1.75,2.55,2.33,3.98,2.42,5.92,3.72,13.14,5.57,19.31.07.22.1.31.28.45l.25.03,6.33-.03c1.17-5.27,3.39-17.95,5.81-22.08.93-1.6,2.21-2.77,3.76-3.76,1.12-.71,2.33-1.32,3.58-1.75.66-2.93.12-6-1.5-8.53-1.45-2.26-3.76-3.76-6.38-4.31-2.26-.48-6.41,1.48-7.5-.02-.42-.58-.39-1.46-.41-2.14-1.4.08-2.81.06-4.21.04ZM64.99,88c-.23.4-.45.81-.75,1.16l1.73.8.2-.09c-.23-.57-.74-1.44-1.17-1.87ZM60.22,92.23c-1.51.19-2.71.44-4.09,1.08-3.95-.97-7.9-.31-11.9-.8.69,1.01,1.36,1.9,2.29,2.71,1.98,1.52,3.94,2.94,6.58,2.61,3.44-.43,5.13-3.05,7.18-5.49l-.07-.11ZM171.68,101.43l-.04,8.57c-.02,5.37-.28,10.42,3.83,14.57,3.44,3.47,7.25,6.7,10.83,10.03.06-.85.13-1.68.27-2.52.59-2.01,1.34-3.76,2.49-5.51-1.27-4.65-3.77-15.34-6.41-18.88-.87-1.17-2.08-2-3.34-2.71-2.35-1.34-5.09-2.63-7.64-3.55ZM210.77,104.01c-3.16,1.56-5.55,3.43-6.71,6.86-1.71,5.07-2.94,10.51-3.95,15.77,1.06,1.65,1.75,3.2,2.33,5.07.53-.73,1.07-1.45,1.65-2.15,5.08-6.7,6.25-8.41,6.14-17.03-1.2.56-2.87,1.08-4.18.61-.45-.16-.81-.43-1-.88-.32-.75-.12-1.68.19-2.41.57-1.34,1.76-2.5,3.11-3.03.58-.23,1.2-.39,1.81-.55.3-.64.63-1.27.74-1.98l-.12-.28ZM209.62,107.63c-.4.17-1.25.43-1.47.8.29.06.54.05.83.02.45.14.69.3,1.13.13l.17-.31c-.09-.28-.11-.47-.42-.59-.1-.04-.15-.04-.25-.05ZM206.82,109.62c-.28.65-.66,1.37-.4,2.08.27.27.37.39.78.39.24,0,.49-.01.73-.03-.05-.61-.06-1.59-.27-2.15-.28-.22-.5-.25-.84-.3ZM118.78,115.7c-2.28,1.39-4.06,3.29-6.16,4.91-.12.84-.2,1.71-.41,2.53.48,1.06.74,1.99.31,3.13-.27.71-.76,1.27-1.27,1.82,1.72.91,3.3,2.25,3.91,4.18.65,2.05-.04,5.38.44,6.62.21-.04,2.14-2.08,2.98-2.5,2.71-1.36,5.77-1.79,8.6-2.87,2.62-1.11,6.3-2.85,7.42-5.69.73-1.84.57-3.51-.23-5.29-.98-2.18-3.05-4.52-5.32-5.38-.45-.17-1-.27-1.47-.14-.08.36.02.73-.01,1.11-.15,1.49-.83,2.92-2.13,3.74-1.03.65-2.24.77-3.4.48-1.27-.31-2.28-1.11-2.94-2.23-.76-1.3-.64-2.38-.27-3.76.05-.18.1-.37.15-.55l-.21-.09ZM123.4,116.25c-.51.25-.73.86-.48,1.37.25.51.86.72,1.37.47.51-.25.72-.86.47-1.37-.25-.51-.86-.72-1.37-.48ZM107.7,116.84c-3.6,3.3-7.59,4.61-7.83,10.3-.03.7.03,1.39.11,2.08.29-.82.55-1.93,1.09-2.62.78-1.16,1.63-1.83,3.02-2.1,2.05-.39,5.18.8,6.6-1.25.58-.83.6-1.94.4-2.9-.25-1.19-.87-2.43-1.92-3.1-.43-.27-.96-.43-1.47-.42ZM111.29,124.65c-3.1,2.08-6.9-.44-9.09,2.49v.27c.15.03.29.07.45.06,2.39-.04,4.7.23,7.11.06.7-.44,1.52-.97,1.71-1.83.08-.34.07-.71-.14-1-.01-.02-.03-.03-.04-.05ZM189.34,128.57c-1.38,2.48-2.18,5.5-1.36,8.3.44,1.51,1.39,2.74,2.79,3.48.75.39,1.57.6,2.41.71l.45-.04c.53-.82.18-2.98.19-3.95-1.29-1.06-4.36-2.86-4.54-4.57-.05-.52.11-.97.44-1.37.13-.15.26-.29.4-.43-.17-.59-.35-1.7-.79-2.13ZM199.72,128.68c-.48,2.11-.11,1.31.19,3.12.38,2.28-3.16,4.06-4.59,5.39-.02.93-.34,3.1.25,3.82l.54-.06c1.76-.42,3.22-1.11,4.2-2.72,1.22-2,1.18-4.81.6-7.03-.17-.63-.61-2.2-1.19-2.52Z"/>
    <path class="st1" d="M33.73,37.25c-.62-7.49-4.86-10.45-2.17-19.1,1.5-4.74,4.84-8.69,9.26-10.97,3.2-1.66,6.83-2.29,10.41-1.8,2.77.4,5.55,1.63,8.18,2.57,3.37,1.2,6.74,2.39,10.12,3.55l36.78,12.83c5.89,2.07,11.76,4.41,17.71,6.28-.32,5.63,1.01,9.91,4.8,14.15,2.81,3.14,6.54,5.71,10.23,7.72-1.41,1.58-2.3,3.4-2.2,5.56.05,1,.32,1.89.71,2.81-2.62,1.32-4.16.69-6.23,3.49-.39.53-.85,1.15-1.05,1.79-.06.19-.07.37-.04.57.21.26.25.33.56.45.79-.37,1.47-2.17,2.11-2.88.37.03.38,0,.63.28-.24.52-.48,1-.54,1.58.13.31.16.3.45.45.74-.2,1.34-1.95,1.78-2.6l.43.03c.1.21.16.39.21.61-.22.64-.73,1.7-.43,2.36.03.06.04.08.07.13l.23.04c1.52-1.18,1.39-3.45,3.7-4.92.7-.05,1.4-.13,2.11-.11-.91.91-2.34,2.4-2.38,3.77,0,.14.02.26.06.39.34.02.56-.14.82-.37.4-.35.7-1.01.96-1.47.21.16.46.32.59.56-.25.56-.5,1.11-.32,1.72.31.21.35.18.73.15.55-.55.61-1.58.96-2.27.15-.29.21-.35.52-.44.75.61-.05,2.11.16,3.01.2.06.22.1.41,0,.61-.3.76-1.17.97-1.77,9.65,5.23,19.01.86,28.66,7.48,5.51,3.78,9.51,8.7,10.75,15.38-3.13.02-5.64.48-8.33,2.18-1.07-2.51-2.42-4.98-4.37-6.91-4.19-4.17-9.74-3.8-15.22-3.78-.24,1.3-.44,2.59-.48,3.91-.13,4.21,1.31,8.53,4.22,11.62,2.73,2.88,6.23,4.65,10.22,4.77-.62,4.56.06,9.34-.33,13.93-.12,1.41-.53,2.78-.93,4.13-2.16,7.33-6.65,15.15-12.5,20.12-1.66-3.65-3.26-7.33-4.78-11.04-2.53-6.25-4.2-12.61-9.44-17.23-5.08-4.48-11.41-6.36-18.12-5.93-2.66-3.69-6.5-6.72-9.87-9.75l-11.52-10.39c-7.79-7.01-16.21-14.25-20.66-23.96,3.26-5.01,5.13-10.45,4.69-16.49-.17-2.35-.64-5.39-2.54-7-1.21-1.02-3.4-.94-4.9-.81-6.21.5-10.77,4.8-14.59,9.32-5.96-1.55-11.77-1.31-17.63.56-1.85-2.39-3.71-4.38-6.29-6-2.16-1.36-4.73-2.85-7.35-2.25ZM126.92,74.91c-.05.14-.15.38-.16.52-.03.46,1.82,3.84,2.05,4.95-1.55-.22-2.69-.83-3.9-1.82-.23-.19-.6-.58-.86-.68-.08-.03-.29,0-.38,0-.27.28-.27.3-.3.68.43,1.06,1.59,1.73,2.6,2.15,3.62,1.51,3.48,1.27,5.94,4.4-2.09-.93-4.32-1.7-6.58-.82-.99.39-1.8,1.09-2.21,2.09-.43,1.04-.38,2.27.06,3.3.89,2.11,3.97,4.13,6.04,4.94.92.36,2.06.27,2.92.64.93.41.69,3.05,2.73,2.1.81-.38,1.4-1.03,1.97-1.69,1.33,1.75,2.68,4.02,4.85,4.76.41-.2.77-.36.93-.82.5-1.39-.72-3.44-1.35-4.65-.13-.25-.26-.49-.39-.73,1.1,1.13,2.65,2.78,4.34,2.83.23,0,.57-.06.73-.23.27-.27.37-.6.37-.98-.02-1.85-2.07-3.86-3.27-5.11.75-.6,1.58-1.25,1.69-2.29.04-.38-.05-.73-.29-1.03-.42-.53-.99-.67-1.63-.71-.18-.01-.36-.02-.54-.02.53-2.71.11-5.12-1.46-7.43-.95-1.39-2.46-3.01-4.17-3.33-.87-.16-1.77.05-2.48.57-.96.7-1.48,1.85-1.65,3-.25,1.7.16,3.51.55,5.16-.99-1.12-1.96-2.3-3.05-3.33-.2-1.97-.85-4.83-2.46-6.17-.18-.15-.4-.19-.63-.23Z"/>
    <path class="st2" d="M237.39,22.51c1.13-2.42,4.1-6.54,5.74-8.81.99-1.38,2.24-2.64,3.73-3.46,3.09-1.7,14.18-3.83,18.1-4.47h.2c-.61.86-4.22,1.83-4.7,2.76-.08.16.01.29.07.45.86.74,2.83.55,3.94.58-1.6.61-3.25,1.08-4.86,1.69-.65.25-1.36.51-1.65,1.16.36.73,2.07,1.19,2.83,1.49-1.4.57-6.19,1.61-6.89,2.69.17.92,2.37,1.1,3.03,1.79-.58,1.54-3.86,1.29-4.99,2.48-.11,1.12,1.14,1.28,1.62,2.14.2.36.23.83.09,1.22-.38,1.12-2.47,1.06-3.43,1.48-.73.86.22,1.94.21,2.96-.02.9-.55,1.53-1.17,2.11-.37.28-.78.53-1.17.79-2.82-3.21-7.15-6.67-10.7-9.06Z"/>
    <path class="st2" d="M128.14,16.08c1.33-1.14,2.51-1.65,4.22-1.97,2.31-.21,4.09.55,5.87,1.96l-.13.05c-2.2.87-3.57,2.42-4.49,4.57l-.35.9c-.47-.25-1.16-4-5.12-5.51Z"/>
    <path class="st2" d="M125.22,31.15c.24-2.38.89-4.72,1.1-7.09.13-1.5-.25-3.05.03-4.53.18-.94.55-1.76,1.1-2.54l1.76.9c-.6.51-1.02.89-1.09,1.71-.04.47.03.98.37,1.33.26.28.7.39,1.08.38.83-.03,1.43-.93,1.87-.8.74,1.24.69,3.89,1.84,4.68.29-.15.45-.22.54-.56.27-.95.4-3.72,1.3-4.26.1-.06.21-.02.31.02.73.27,1.17,1.29,2.12.87.46-.2.82-.7.98-1.17.12-.35.1-.72-.06-1.06-.23-.47-.72-.81-1.14-1.09.51-.38,1.03-.69,1.58-1,2.4,3.71.04,8.12,6.07,9.4.22.05.43.09.65.12-1.11,2.21-1.66,4.58-.84,7,.75,2.21,2.42,4.6,3.72,6.55-1.61-.22-3.25-1.21-4.77-1.78-6.17-2.34-12.24-4.95-18.5-7.06Z"/>
    <path class="st1" d="M172.39,42.37c10.45-7.94,29.26-19.39,41.89-22.45,3.29-.8,6.42-1.02,9.79-.91-.76.61-1.44,1.24-2.09,1.98-1.21.27-3.04.51-3.78,1.64-.09.13-.08.33-.11.48.18.44.45.61.86.79.96.41,2.28.38,3.31.41,1.13,1.96.97,3.02.88,5.18-.33,7.44,5.38,9.66,11.13,12.42-.42,1.12-1.08,3.74-2.04,4.43-.25.06-.5.13-.75.2-.33.09-.58.25-.76.55-.19.32-.24.62-.12.97.1.3.4.62.27.92-.25.57-1.09,1.25-1.49,1.78-.97,1.26-1.63,3.33-2.01,4.86-2.61,2.32-5.79,4.49-8.87,6.12-1.69.89-3.47,1.63-5.15,2.53-2.3,1.23-4.5,2.65-6.69,4.07.18-2.45,1.36-11.66-.01-13.23-.32-.36-.78-.67-1.28-.68-.45-.01-.83.26-1.13.57-2.18,2.29-3.21,15.81-4.34,19.78-.4,1.38-1.37,2.6-2.01,3.88-1.24,2.44-1.9,5.21-2.36,7.9-1.45-.07-2.91-.1-4.36,0-.33-2.77-1.14-5.13-2.43-7.61-.53-1.01-1.2-2.07-1.59-3.15-.54-1.51-.57-3.35-.86-4.93,1.16.07,2.34.17,3.5.18-1.31-1.82-3.47-4.28-4.36-6.27-.91-2.02-1.08-9.84-3.52-10.21-1.13-.17-1.34.69-2.17-.4-1.35-1.77-2.47-3.85-3.63-5.76-1.22-2-2.57-3.99-3.68-6.05Z"/>
    <path class="st2" d="M228.33,29.53c-1.32.07-2.66.11-3.97.25.09-1.91.27-3.6-.59-5.38.87.17,2.09.58,2.91.14.15-.31.15-.31.05-.64-1.1-.75-3.34-.32-4.11-1.44-.02-.43.12-.67.41-.98,1.16-1.26,2.88-2.37,4.62-2.41.94-.03,1.86.19,2.73.54,4.1,1.69,12.15,8.15,15.52,11.42.77.75,1.52,1.53,2.24,2.34-.87-.03-3.23-1.43-4.31-1.76-4.6-1.42-9.38-2.13-14.19-2.12-.81-2.13.6-3.45,1.05-5.37-.17-.35-.16-.43-.52-.57-.27.07-.46.32-.62.54-1.14,1.64-1.58,3.47-1.21,5.43ZM227.21,20.15c-.44.19-.74.59-.79,1.07-.05.47.16.94.55,1.21.39.27.9.31,1.33.1.64-.31.91-1.07.61-1.72-.29-.64-1.05-.94-1.7-.66Z"/>
    <path d="M228.3,22.53c-.43.21-.94.17-1.33-.1-.39-.27-.6-.74-.55-1.21.05-.47.35-.88.79-1.07.65-.28,1.4.02,1.7.66.29.64.02,1.41-.61,1.72Z"/>
    <path class="st2" d="M150.49,40.87c-1.29-1.84-4-6-4.62-8.02-.31-.98-.37-2.03-.2-3.04.22-1.25.77-2.22,1.52-3.22,4.42-.84,9.6,1.76,13.15,4.18,4.35,2.97,9.1,8.25,11.47,13.04-.67.55-1.4,1.3-2.19,1.66-.33-.22-.54-.37-.95-.36-.35.22-.39.29-.58.67-.62.38-1.68.26-2.38.24-.9-1.13-1.98-2.98-3.33-3.56l-.15.09c.16,1.22.95,2.14,1.65,3.1-.89-.02-2.03-.54-2.96-.71-.91-1.1-2.79-4.33-3.95-4.81-.21-.09-.26-.02-.45.07l-.1.35c.56,1.13,1.46,2.21,2.19,3.24-.62.13-2.42-.83-3.13-1.08-1-1.12-1.68-2.51-2.65-3.66-.33-.4-.59-.66-1.11-.7l-.21.23c-.11.89,1.55,2.83,2.09,3.6-1.05-.41-2.08-.87-3.12-1.31Z"/>
    <path class="st1" d="M251.72,28.38c5.56.16,9.98,1.21,13.95,5.41,3.6,3.77,5.55,8.82,5.41,14.04-.06,1.96-.45,3.87-1.06,5.73l-9.16-7.71c-1.71-1.44-3.58-2.85-5.11-4.48-.69-.73-1.05-1.83-1.64-2.66-1.55-2.2-3.28-4.27-5.16-6.19.09-.06.18-.12.27-.18,1.53-1.06,2.17-2.15,2.5-3.95Z"/>
    <path class="st1" d="M224.36,29.78c1.32-.15,2.65-.18,3.97-.25.41,1.04.8,1.92,1.55,2.77,2.49,2.8,8.45,5.05,11.97,6.6.65.29,1.32.57,2.01.77.88,1.26,1.74,2.57,2.7,3.77-1.55.12-3.22.45-4.76.19-3.23-.54-12.48-5.16-14.92-7.25-1.58-1.36-2.33-3.46-2.48-5.51-.02-.36-.04-.72-.04-1.09Z"/>
    <path class="st1" d="M229.63,29.5c4.81-.02,9.6.7,14.19,2.12,1.08.33,3.44,1.73,4.31,1.76,1.57,1.11,4.48,5.33,5.57,7.06-3.19-.59-6.39-1.39-9.6-1.82-1.06-1-2.13-2.16-3.32-2.99-.39-.27-.66-.42-1.13-.34l-.15.37c.04.5.61.95.95,1.3-3.78-1.71-9.13-3.37-10.83-7.45Z"/>
    <path class="st1" d="M125.22,31.15c6.26,2.1,12.33,4.72,18.5,7.06,1.52.58,3.16,1.57,4.77,1.78.87,1.33,4.86,8.22,5.93,8.5.29-.24.32-.28.42-.65-.66-1.95-3.18-5.07-4.36-6.97,1.04.44,2.07.9,3.12,1.31.79,1.28,1.77,2.5,2.65,3.73,2.42,3.37,4.94,6.66,7.36,10.02-2.65-.76-5.88-1.37-8.27-2.72-2.17-1.22-3.03-3.6-5.96-3.89-.75-.08-1.72.06-2.31.57-.46.39-.61.81-.64,1.4-.1,1.77,1.06,2.91,2.15,4.13-6.44-2.01-13.54-6.01-18.26-10.84-4.08-4.17-5.17-7.73-5.1-13.43Z"/>
    <path class="st1" d="M246.25,41.1l-.74-1.02c1.26.08,5.3.76,6.34,1.3l-.2.94c-.09.04-.18.09-.27.12-1.26.54-3.88-.85-5.13-1.34Z"/>
    <path d="M69.64,47.86c.15-.24.32-.47.51-.69,2.54-3.05,5.72-4.86,9.69-5.23.44-.06.82-.08,1.26-.03.43.22.62.58.76,1.03.98,3.25-1.42,9.16-2.97,11.97-.38.7-.85,1.59-1.65,1.82-.86-.61-1.61-1.74-2.32-2.54-1.69-2.18-3.42-4.3-5.28-6.34ZM80.06,43.11c-3.54.44-6.37,1.98-8.82,4.57,1.2,1.52,2.42,3.04,3.65,4.54l2.42,2.96c1.41-2.51,4.19-8.79,3.41-11.6-.08-.3-.13-.33-.37-.5l-.29.02Z"/>
    <path class="st1" d="M269.71,54.95c-.33.97-.66,1.94-.97,2.92-1.86-1.6-15.01-13.45-15.63-14.94.56-.13.83-.72,1.4-.77,1.69,1.07,3.26,2.65,4.79,3.94l10.41,8.85Z"/>
    <path class="st1" d="M234.19,45.13l1.09-2.71c.87.38,1.71.75,2.53,1.23l-1.57,1.2c-.53.21-1.45.18-2.06.28Z"/>
    <path class="st1" d="M155.48,42.71c.71.25,2.51,1.21,3.13,1.08,3.15,4.63,6.67,9.13,10.15,13.52-1.33-.49-2.61-1.04-3.9-1.62-3.05-4.38-6.37-8.56-9.37-12.98Z"/>
    <path class="st1" d="M252.88,45.5c-.46-.51-1.11-1.05-1.27-1.73l.19-.11c.67.27,1.17.96,1.66,1.48,4.86,4.8,9.79,9.74,15.02,14.15-1.1,2.56-2.27,5.09-3.5,7.59-2.69,5.41-8.27,14.9-5.78,20.97.03.08.07.14.11.21-3.22,5.21-5.15,11.21-6.88,17.05-1.26-.46-2.4-.83-3.02-2.13-.93-1.98-.02-5.36.45-7.38,1.38-.21,2.47-.85,3.3-2,1.56-2.15,1.47-5.18,1.04-7.68-.52-3.03-1.7-5.91-2.24-8.94-.16-.93-.1-2.93-.62-3.64-.35-.17-.37-.19-.74-.1-2.27,1.76-5.72,9.53-6.07,12.41-.31,2.55.27,5.78,1.87,7.85.62.8,1.34,1.35,2.22,1.84-.55,2.39-1.59,6.35-.19,8.6.83,1.34,2.24,1.85,3.64,2.37-1.22,4.84-2.54,9.7-3.32,14.64-1.89.27-3.59.26-5.19-.96-1.71-1.3-2.37-3.33-2.73-5.35,2.24-1.08,3.86-2.41,4.72-4.84.98-2.77.55-5.67-.71-8.27-2.57-5.33-8.09-9.32-13.59-11.21-.73-.25-2.24-.85-2.95-.52-.22.24-.34.3-.34.63.01.88.98,2.16,1.22,3.1.94,3.64.46,6.82.15,10.48.79-.03,2.27-.25,2.93.24.05.04.09.1.13.14-.27.37-.8.58-1.26.65-.6.09-1.22.12-1.83.17.78,3.45,2.43,5.85,5.43,7.76,1.44.92,2.97,1.52,4.68,1.68.64,2.61,1.39,5.21,3.84,6.7,1.6.98,3.32,1.12,5.15.93-.47,3.21-3.89,20.67-3.51,22.24-2.43-.1-4.96.19-7.37-.03.46.01.97.09,1.39-.13-.09-.48-2.54-3.73-2.99-4.54-.73-1.31-1.23-2.66-1.66-4.09,1.13-1.16,2.05-2.51,2.7-4,1.22-2.82,1.29-6.18.13-9.03-2.26-5.58-8.48-9.86-13.83-12.11-1.31-.55-5.72-2.15-7-1.62-.14.15-.32.27-.34.48-.1.79,1.24,2.27,1.61,2.98.34.65.63,1.35.89,2.04.51,1.4.84,2.86.98,4.34.19,1.93-.3,7.58.91,8.91l.42-.02c.51.16.83.21,1.09.73.02.05.05.09.07.14l-1.31.25c1.63,3.23,4.14,5.88,7.65,7.05,1.59.53,3.17.6,4.82.32,1.03,3.15,2.45,5.52,4.31,8.25-2.36.11-4.77.02-7.13.02h-12.97s-13.57,0-13.57,0c-2.66,0-5.35.07-8.01-.06l.2-1.94c1.64-.42,3.29-1.07,4.54-2.25,1.87-1.77,2.13-4.07,2.2-6.49,6.03-8.33,8.53-9.16,8.88-20,.07-2.05,0-4.11.08-6.16.1-2.32.96-4.53,1.02-6.99,1.24-.07,2.53-.36,3.71-.74,4.2-1.37,7.64-4.13,9.64-8.09,1.46-2.89,1.93-5.79,2.02-8.99.02-.8.1-1.8-.16-2.56-.07-.19-.09-.28-.27-.37-.28-.12-.58-.12-.88-.11-1.15.02-2.3.28-3.46.32-1.34.04-2.68-.13-4.02.03-.99.12-1.96.35-2.89.71-4.12,1.62-6.77,5.65-8.47,9.54-1.86-1.05-3.49-1.62-5.61-1.95.81-8.88,10.3-17.07,18.6-18.94,2.56-.58,5.32-.44,7.92-.61,4.12-.28,13.36-1.45,16.22-4.19.51-.49.82-1.06.82-1.78,0-.67-.29-1.38-.77-1.85-.5-.48-1.07-.63-1.75-.57-1.64.13-3.24,1.06-4.84,1.45-2.94.71-6.34.72-9.36.75,2.59-2.76,5.15-5.47,7.05-8.78,1.36-.6,4.65-3.24,5.42-4.51.34-.56.06-1.31-.07-1.91l.61.22c.08.42.05.62.38.9.35,0,.35,0,.6-.24.24-.9.03-1.94-.02-2.87.85.12,1.67.35,2.51.57-.44.48-1.47,1.6-1.49,2.3,0,.2.12.27.25.41.99,0,1.4-1.26,2.1-1.83.72-.6,2.2-.87,3.06-1.38.19-.31.17-.34.11-.71-.38-.27-.79-.08-1.24-.18-.41-.59-.74-1.21-1.08-1.84l2.48.83c3.58,4.31,7.48,8.39,11.39,12.4,1.15,1.18,2.29,2.67,3.58,3.67.33.26.55.35.96.29l.16-.28c0-.34-.02-.68-.23-.96-1.05-1.4-2.9-2.79-4.18-4.08-2.91-2.93-5.82-6.02-8.53-9.13Z"/>
    <path class="st2" d="M71.24,47.68c2.45-2.6,5.28-4.14,8.82-4.57l.29-.02c.24.17.28.2.37.5.78,2.81-2,9.09-3.41,11.6l-2.42-2.96c-1.23-1.5-2.45-3.02-3.65-4.54Z"/>
    <path class="st1" d="M169.62,45.47c.79-.37,1.52-1.11,2.19-1.66,2.57,4.19,5.36,8.32,7.78,12.58-.01,1.21.1,2.38.24,3.58-1.1-1.8-10.11-13.89-10.21-14.5Z"/>
    <path class="st0" d="M241.46,47.38c-.58-2.12-1.46-1.76-2.7-3.44,1.01.39,2.02.8,3.07,1.09l.24,2.57-.61-.22Z"/>
    <path class="st1" d="M160.92,44.94c.92.17,2.07.69,2.96.71,3.61,4.69,7.09,9.46,10.57,14.24-1.03-.18-2.07-.6-3.07-.93-3.52-4.63-7.21-9.2-10.45-14.02Z"/>
    <path class="st0" d="M235.64,46.77c.76-.64,1.54-1.23,2.34-1.82.44.2,1.03,1.19,1.34,1.6-.73.81-1.54,1.56-2.32,2.33-.59-.6-.96-1.36-1.35-2.1Z"/>
    <path class="st1" d="M165.71,46.02c.71.02,1.76.14,2.38-.24,1.27,1.33,2.33,3.04,3.43,4.53,1.91,2.58,3.79,5.19,5.62,7.83.99,1.4,2.06,2.78,2.95,4.24-1.16-.6-2.31-1.11-3.53-1.57-3.49-5.02-7.39-9.76-10.85-14.79Z"/>
    <path class="st0" d="M232.64,49.03c.48.24.96.5,1.45.72.38.17.61.17.99.02.25-.36.18-.78.16-1.21l.11-.07c.17.27.56.77.57,1.08,0,.21-.4.57-.55.75-.04.32-.01.33.14.6l.38.06c1.53-.47,3.16-2.55,4.24-3.71.18.28.31.75.32,1.08,0,.4-.18.55-.44.82-.79.84-3.31,3.34-4.5,3.38-.41-.17-.56-.57-.77-.94-.26-.45-.56-.89-1.11-1-1.65-.34-3.06,2.42-4.37,3.2-.12-.29.12-.63.24-.92.74-1.57,1.85-2.71,3.12-3.86Z"/>
    <path d="M54.33,52.08c-.1-.01-.21-.02-.31-.05-.37-.1-.4-.15-.57-.48,0-1.21,1.24-2.72,1.89-3.72.33.02.48.09.72.31.31.91-1.3,3.02-1.73,3.93Z"/>
    <path d="M59.4,52.09c-.1-.01-.22-.02-.32-.05-.33-.12-.35-.24-.47-.54.13-1.21,1.55-2.56,2.41-3.36.38.11.45.11.69.41.06.8-1.83,2.76-2.32,3.54Z"/>
    <path d="M49.32,52.35c-.11,0-.23,0-.34-.04-.35-.09-.39-.2-.55-.49-.01-1.07,1-2.15,1.6-2.98.35.07.55.11.79.39.11.82-1.09,2.29-1.49,3.12Z"/>
    <path d="M44.52,54.29l-.56-.15c-.09-.11-.26-.26-.29-.4-.26-1.1.71-2.65,1.26-3.58.31.04.45.13.68.33.31.68-.83,2.96-1.08,3.79Z"/>
    <path class="st1" d="M152.53,56.59c-1.35-1.49-3.77-3.82-4.22-5.81.14-.2.13-.2.38-.25,1.03-.2,2.31.63,3.12,1.21,2.28,1.64,4.1,4.17,6.24,6.04-1.85-.31-3.68-.82-5.52-1.2Z"/>
    <path d="M64.8,54.28l-.49-.09c-.27-.23-.27-.24-.32-.59.4-1.21,2.06-2.29,3.07-2.98.36.06.42.07.69.32.02.96-2.3,2.43-2.95,3.34Z"/>
    <path class="st2" d="M205.08,71.09c2.74-2,5.5-3.91,8.5-5.51,2.03-1.09,4.17-1.95,6.17-3.1,5.03-2.85,9.55-6.51,13.4-10.83.22,0,.32.05.51.18.09.06.07.11.1.21.01.06.04.18.05.24.08.64.43,1.02.81,1.53-.24,1.69-6.91,8.34-8.35,9.93,3.7-.01,7.58.06,11.26-.5,1.72-.26,4.75-1.81,6.18-1.63.4.05.66.17.91.49.08.24.09.41.03.65-.32,1.37-1.95,1.86-3.09,2.29-4.28,1.62-9.2,2.29-13.76,2.54-2.44.14-5.01.1-7.4.62-2.89.63-5.71,2.1-8.19,3.69-6.23,3.99-9.71,8.94-11.28,16.12l-.08.3c-.44.29-.95.43-1.45.57-.75.21-1.94.48-2.66.07-.32-.68-.06-1.81.05-2.53.46-2.92,1.23-5.22,2.56-7.83.66-1.3,1.45-2.61,1.82-4.03.32-1.24.48-2.58.71-3.85.73-4.19,1.43-9.9,2.62-13.88.13-.45.3-.78.74-1.01.27.02.37,0,.55.22.93,1.15-.44,13.12-.7,15.04Z"/>
    <path class="st1" d="M139.08,61.08c-.71-1.04-1.07-2.28-1.03-3.54.06-1.72.81-3.26,2.06-4.43,1.98.78,3.88,1.86,5.84,2.7-1.76,2.76-.46,2.88-.97,4.93-.41.3-.75.22-1.25.22-.65.29-3.71.1-4.65.12Z"/>
    <path d="M54.24,59.41c-.07-.02-.14-.04-.21-.06-.22-.09-.48-.24-.56-.47-.43-1.22,1.2-3.82,1.76-4.93.37.15.63.23.84.59.01.28-1.6,4.48-1.83,4.87Z"/>
    <path d="M71.59,55.41c-.31.17-.6.28-.95.37-.37-.09-.39-.07-.58-.39.02-.14.04-.27.1-.4.19-.43.72-.6,1.12-.77.61-.06.95-.08,1.45.32v.33c-.37.38-.64.4-1.14.55Z"/>
    <path d="M50.29,59.26l-.55-.12c-.16-.2-.26-.27-.31-.53-.24-1.27.58-3.3,1.27-4.34.18.02.36.04.53.13.25.14.25.19.33.45-.35,1.15-.81,3.52-1.28,4.41Z"/>
    <path d="M58.92,59.74c-.13.02-.28.04-.4.02-.33-.06-.39-.24-.52-.5.05-1.64,1.62-3.45,2.73-4.54l.55.15c.28.3.27.3.27.71-1.19,1.13-2,2.68-2.62,4.17Z"/>
    <path class="st0" d="M156.83,55.15c3.66.96,6.42,3.09,9.35,5.38.5.4,1.02.79,1.48,1.24l-2.04-.86c-3.2-1.69-6.03-3.4-8.79-5.76Z"/>
    <path d="M46.07,59.34c-.14-.04-.31-.09-.43-.17-.25-.17-.32-.38-.36-.66-.15-.98.45-2.18,1.02-2.94.08.02.17.03.25.07.21.09.37.17.43.41.17.68-.52,2.7-.91,3.29Z"/>
    <path class="st2" d="M152.53,56.59c1.84.38,3.67.89,5.52,1.2,2.81,1.92,5.62,3.59,8.76,4.93,1.86.8,3.82,1.42,5.64,2.32,3.43,1.69,6.57,3.87,9.63,6.16-.39-2.2-1.37-12.95-1.11-14.75.05-.34.12-.49.4-.69.39.13.53.26.77.59.59.84.71,2.46.92,3.48.6,2.93,1.24,5.85,1.71,8.81.38,2.39.54,5,1.17,7.33.33,1.25,1.06,2.34,1.66,3.47,1.15,2.15,1.9,4.28,2.27,6.7.11.7.29,1.69.13,2.38-.03.14-.09.38-.23.46-.9.51-3.01-.22-3.98-.47-1.12-5.62-3.61-10.36-8.02-14.11-2.5-2.13-5.33-4.14-8.44-5.26-6.92-2.5-19.38-.81-24.9-5.46-.12-.1-.25-.29-.25-.46,0-.34.09-.77.35-1.02.27-.25.61-.32.97-.31.73.02,1.53.5,2.23.69.98.26,2,.45,3,.64,3.4.62,6.81.67,10.25.73-2.71-2.57-5.89-4.53-8.42-7.34Z"/>
    <path class="st1" d="M146.44,60.97l-.02-.09c-.11-.46-.23-.93-.28-1.41-.14-1.28.14-2.24.96-3.24,1.47.55,3.19.81,4.57,1.55.77.41,5.54,4.44,5.69,4.94h-.45c-3.56-.05-7.09-.64-10.46-1.76Z"/>
    <path d="M43.23,58.43c-.07,0-.13,0-.2-.02-.45-.07-.98-.35-1.24-.72-.3-.43-.21-.76-.11-1.23.08,0,.12,0,.21.01.44.05.97.34,1.22.71.32.45.21.77.11,1.25Z"/>
    <path d="M63.81,58.86c-.37-.05-.53-.18-.77-.43.08-.87,1.02-1.45,1.66-1.98.19.03.37.06.54.18.29.2.28.25.34.57-.31.66-1.19,1.2-1.77,1.66Z"/>
    <path d="M69.84,59.15c-.16.12-.33.1-.52.09-.13,0-.12-.02-.2-.11-.05-.19-.11-.31-.05-.51.23-.69.84-.91,1.43-1.2.36.03.81.1,1.06.39.07.09.02.22.01.33-.52.53-1.07.68-1.73,1Z"/>
    <path d="M50.1,63.51c-.08-.03-.11-.04-.2-.1-.32-.21-.51-.44-.55-.84-.06-.65.32-1.33.72-1.81.38.18.46.21.69.56.08.78-.22,1.56-.66,2.19Z"/>
    <path d="M54.63,64.88c-.43-.1-.6-.09-.89-.45-.18-1.1.73-2.32,1.24-3.26.37.05.51.06.81.31.28.71-.9,2.6-1.16,3.4Z"/>
    <path class="st2" d="M68.14,64.38l-.18.29-.25-.03c-.09-.11-.18-.22-.26-.34-.41-.6-.98-1.97-.84-2.71.7-.04,1.42.05,2.12.1-.15.91-.35,1.79-.58,2.68Z"/>
    <path class="st2" d="M40.78,64.06c-.36.1-.48.2-.84.03-.19-.31-.33-.57-.36-.94-.05-.7.04-1.05.51-1.54.5,0,.77,0,1.19.29.14.22.25.35.27.62.03.67-.34,1.07-.77,1.54Z"/>
    <path d="M75.22,64.02s-.05,0-.08,0c-.05,0-.09,0-.14,0-.7-.02-1.49-.44-1.98-.94-.39-.4-.4-.67-.39-1.2.03,0,.06,0,.09,0,.12,0,.24,0,.36.01.67.08,1.61.65,2.02,1.19.26.34.17.54.12.93Z"/>
    <path class="st0" d="M135.23,63.99c.7-.84,1.44-1.46,2.36-2.06-.64.88-1.25,1.72-1.72,2.71-.05-.22-.11-.41-.21-.61l-.43-.03Z"/>
    <path class="st0" d="M141.02,64.45c.62-.7,1.27-1.3,1.98-1.89-.44.84-1.02,1.58-1.4,2.45-.13-.24-.37-.39-.59-.56Z"/>
    <path class="st0" d="M132.92,64.28c.55-.5,1.1-1.01,1.7-1.46-.34.56-.67,1.23-1.07,1.74-.25-.27-.26-.26-.63-.28Z"/>
    <path class="st2" d="M46.32,67.23c-.42.02-.84.09-1.23-.08-.03-.5.74-1.33.97-1.81.22-.45.32-1,.44-1.48.7.8.9,2.19,1.05,3.22-.41.04-.82.11-1.23.16Z"/>
    <path class="st2" d="M59.39,68c.34-1.24.62-2.29,1.45-3.3.71,1.28,1.19,2.06,2.31,3.05-.43.06-.85.1-1.29.11-.74.19-1.7.12-2.48.14Z"/>
    <path d="M74.52,69.07c-.09,0-.18-.01-.26-.03-.69-.12-1.57-.56-1.95-1.17-.26-.42-.14-.72-.03-1.16.12,0,.23.01.34.04.57.12,1.54.81,1.85,1.3.24.37.13.63.05,1.02Z"/>
    <path d="M80.91,71.18c-.19-.02-.37-.05-.55-.1-1.12-.27-2.65-.78-3.24-1.84-.22-.4-.1-.66,0-1.07.23,0,3.69,1.85,3.99,2.11.04.42-.03.54-.2.9Z"/>
    <path d="M39.53,72.32c-.38-.23-.42-.26-.6-.66,0-.79.34-1.87.88-2.46.18.07.37.14.5.28.24.23.3.56.28.89-.05.75-.55,1.46-1.07,1.96Z"/>
    <path d="M72.42,72.09c-.1,0-.2,0-.29,0-.72-.07-1.55-.57-1.98-1.14-.36-.47-.3-.76-.22-1.3.03,0,.06,0,.08,0,.72.07,1.85.91,2.29,1.45.28.33.17.61.12,1Z"/>
    <path d="M259.3,88.05c.24-.36.56-.65.46-1.11-.07-.31-.27-.58-.31-.91-.16-1.35.5-3.35,1.09-4.56,2.27-4.67,8.89-8.54,13.64-10.17.64-.22,1.68-.6,2.32-.26.09.05.24.13.26.24.06.3-.04.54-.13.82-.37,1.01-.97,1.94-1.38,2.94-.84,2.05-1.51,4.16-2.47,6.17-.37.79-.8,1.56-1.31,2.27-1.79,2.45-4.86,4.03-7.83,4.49-.67.1-2.64-.04-3.05.3-.19.32-.38.65-.54.98-2.83,4.29-7.06,16.55-7.8,21.58,1.75-.27,2.97-.66,4.06-2.17.79-1.09,1.38-2.41,1.99-3.61-.88-.82-1.18-1.67-1.21-2.88-.08-3.51,2.18-7.36,4.57-9.78.05-.05.1-.09.15-.14,1.05-1.03,2.08-1.94,3.34-2.71,2.86-1.76,8.72-3.83,12.12-3.76.44.01.75.08,1.13.33l.16.32c-.48,1.26-3.56,4.68-4.52,5.96-1.89,2.51-3.68,5.1-5.57,7.61-1.82,2.26-3.96,5.59-7.11,5.92-.66.07-1.3,0-1.96-.09-1.43,2.41-2.4,5.16-5.4,5.92-.68.17-1.36.18-2.06.2-1.02,4.27-2.01,8.57-2.67,12.92,2.73.42,5.01.47,7.36-1.27.9-.66,1.74-1.41,2.62-2.11-1.01-1.91-.89-3.83-.28-5.84,1.04-3.4,3.99-5.97,7.06-7.58,2.55-1.34,5.26-1.88,8.07-2.38,4.24-.55,8.04-.82,12.26.15.69.16,1.6.27,2.16.71.18.14.17.2.22.42-.62,1.79-9.06,8.35-11.01,10.32-3.61,2.92-8.45,7.13-13.43,6.62-1.51-.14-2.96-.7-4.19-1.6-2.53,2.32-4.87,4.29-8.51,4.12-.87-.04-1.69-.2-2.53-.41-1.11,5.72-1.85,11.51-2.94,17.24,2.05.07,4.38-.03,5.97-1.53.3-.28.51-.57.69-.94-.14-.48-.35-1.06-.35-1.57,0-1.5.85-3.52,1.57-4.82,1.73-3.16,5.39-5.19,8.75-6.15,3.55-1.02,7.36-1.34,11.04-1.2,1,.04,2.1.37,3.05.34.26.35.37.42.36.88-.29.41-.71.69-1.11.99-1.5,1.15-2.95,2.32-4.24,3.7-4.31,4.63-7.94,10.29-15.15,9.31-.95-.13-1.84-.43-2.74-.75-1.33,1.43-2.52,2.36-4.41,2.94-1.52.22-3.14.15-4.67.07-.38-1.57,3.04-19.03,3.51-22.24-1.82.18-3.54.05-5.15-.93-2.45-1.5-3.21-4.09-3.84-6.7-1.71-.17-3.24-.77-4.68-1.68-3-1.91-4.65-4.31-5.43-7.76.61-.05,1.23-.08,1.83-.17.46-.07.99-.28,1.26-.65-.03-.04-.08-.1-.13-.14-.66-.5-2.14-.27-2.93-.24.31-3.66.8-6.84-.15-10.48-.24-.94-1.21-2.21-1.22-3.1,0-.33.12-.4.34-.63.71-.33,2.23.27,2.95.52,5.49,1.89,11.01,5.89,13.59,11.21,1.26,2.6,1.69,5.5.71,8.27-.86,2.43-2.48,3.76-4.72,4.84.36,2.02,1.02,4.05,2.73,5.35,1.6,1.21,3.3,1.23,5.19.96.78-4.94,2.1-9.79,3.32-14.64-1.4-.52-2.81-1.04-3.64-2.37-1.4-2.25-.36-6.21.19-8.6-.88-.48-1.6-1.04-2.22-1.84-1.6-2.06-2.18-5.29-1.87-7.85.35-2.88,3.8-10.64,6.07-12.41.38-.09.39-.08.74.1.52.72.45,2.71.62,3.64.53,3.03,1.71,5.91,2.24,8.94.43,2.5.52,5.53-1.04,7.68-.83,1.15-1.92,1.78-3.3,2-.47,2.02-1.39,5.4-.45,7.38.62,1.31,1.76,1.68,3.02,2.13,1.73-5.84,3.66-11.83,6.88-17.05ZM264,95.86c-.04-.61-.05-1.27-.17-1.86-.08-.42-.22-.64-.56-.88l-.24.16c-.54,1.14-.51,2.58-.1,3.76-.01.02-.02.05-.04.07-.89,1.59-4.48,4.6-3.96,6.51.08.29.12.34.35.52.57-.3,1.28-2.12,1.68-2.75.95-1.49,2.18-3.28,3.47-4.49.03,0,.06-.01.09-.02.36-.1,1.21-1.25,1.53-1.59.99-1.07,5.78-5.09,6.06-5.57.12-.22.1-.21.04-.45-.09-.03-.11-.04-.21-.03-2.05.08-6.48,5.02-7.94,6.62ZM240.32,102.52l-1.32,1.43c-.71-1.57-2.51-6.2-3.98-6.81l-.28.1c-.17.52-.11.58.13,1.06.51,1.02,1.16,1.98,1.7,2.98,1.1,2.05,2,4.37,2.58,6.62.4,1.57.46,4.04,1.01,5.43l.45.08c.3-.24.37-.38.41-.77.16-1.79-1.01-5.67-1.49-7.49l.9-1.18c.37-.37.89-.81,1.12-1.28.18-.36.18-.69.03-1.06l-.31-.06c-.45.21-.67.55-.95.95ZM275.42,109.81c-3.15,1.58-5.99,3.38-8.89,5.37.1-1.05.57-2.98-.08-3.86-.23.05-.22.04-.35.25-.8,1.22-.72,3.13-.79,4.55-1.3,1.08-3.51,2.62-4.55,3.83-.18.2-.24.47-.26.73-.02.25.02.33.12.55.26.08.31.12.57,0,.84-.4,2.22-2.01,2.98-2.67.88-.77,1.83-1.48,2.76-2.2,2.87-2.21,5.96-4.03,9.17-5.7,1.04-.47,2.08-.83,2.82-1.74l-.05-.24c-1.07-.23-2.51.67-3.45,1.13ZM271.92,74.52c-2.74,2.03-10.01,8.8-10.75,11.87.09.33.1.32.42.49.13.07.08.05.22.09,1.08-1.78,2.28-3.38,3.68-4.91,1.43-1.55,2.92-3.09,4.48-4.52.69-.63,1.53-1.15,2.17-1.84.26-.27.39-.39.44-.77-.22-.22-.35-.33-.65-.42ZM266.92,129.91c-1.53.57-3.01,1.27-4.42,2.09-1.95,1.12-7.58,4.9-8.52,6.97-.13.28-.08.43-.03.72l.26.27.15-.03c2.29-2.5,4.86-4.51,7.68-6.37,1.02-.67,5.03-2.33,5.4-3.13l-.05-.29c-.16-.11-.27-.21-.48-.22Z"/>
    <path d="M43.41,74.4c-.4-.06-.51-.07-.82-.35-.19-.74.39-1.82.66-2.52.06,0,.14.02.2.04.44.11.52.27.72.64.09.83-.32,1.53-.76,2.2Z"/>
    <path d="M69.27,74.65c-.2-.02-.39-.06-.58-.13-.77-.3-1.66-1.14-1.99-1.88.02-.42.07-.42.38-.71.1.02.2.04.29.07.6.2,1.84,1.27,2.06,1.84.12.3-.05.53-.16.81Z"/>
    <path d="M79.84,75.09c-.82-.19-1.66-.28-2.47-.49-.41-.1-.76-.26-.98-.64,0-.44.08-.57.29-.94,1.04.34,2.5.41,3.31,1.18.12.42.03.51-.15.89Z"/>
    <path d="M64.63,76.32c-.13,0-.27-.03-.39-.07-.65-.23-1.36-.93-1.66-1.54-.22-.44-.12-.68.03-1.1.07,0,.1,0,.17.03.75.17,1.67,1.28,2.07,1.9.04.38-.03.44-.22.78Z"/>
    <path class="st2" d="M261.81,86.97c-.14-.04-.08-.02-.22-.09-.31-.17-.33-.16-.42-.49.74-3.07,8.01-9.84,10.75-11.87.31.08.44.19.65.42-.05.37-.18.5-.44.77-.64.68-1.48,1.2-2.17,1.84-1.56,1.42-3.05,2.96-4.48,4.52-1.41,1.53-2.61,3.13-3.68,4.91Z"/>
    <path d="M128.81,80.39c-.23-1.11-2.08-4.49-2.05-4.95.01-.14.12-.38.16-.52.23.03.45.07.63.23,1.61,1.34,2.26,4.2,2.46,6.17,1.09,1.02,2.06,2.2,3.05,3.33-.39-1.65-.81-3.46-.55-5.16.17-1.15.69-2.3,1.65-3,.71-.52,1.61-.73,2.48-.57,1.72.31,3.23,1.93,4.17,3.33,1.57,2.31,1.99,4.72,1.46,7.43.18,0,.36.01.54.02.64.04,1.21.18,1.63.71.24.3.33.66.29,1.03-.1,1.04-.93,1.69-1.69,2.29,1.19,1.25,3.25,3.26,3.27,5.11,0,.38-.1.71-.37.98-.17.17-.51.24-.73.23-1.69-.04-3.24-1.69-4.34-2.83.13.24.26.49.39.73.62,1.21,1.84,3.26,1.35,4.65-.17.46-.52.62-.93.82-2.17-.74-3.52-3.01-4.85-4.76-.58.66-1.16,1.31-1.97,1.69-2.04.95-1.8-1.69-2.73-2.1-.86-.37-2-.28-2.92-.64-2.06-.81-5.14-2.83-6.04-4.94-.44-1.03-.49-2.25-.06-3.3.41-.99,1.22-1.7,2.21-2.09,2.26-.88,4.49-.11,6.58.82-2.46-3.13-2.32-2.9-5.94-4.4-1.01-.42-2.17-1.09-2.6-2.15.03-.38.04-.4.3-.68.09,0,.3-.02.38,0,.26.1.63.49.86.68,1.21.99,2.35,1.6,3.9,1.82ZM137.73,77.68c-.58-.4-1.19-.81-1.93-.66-.7.14-1.32.64-1.71,1.23-.86,1.31-.64,3.1-.31,4.56.21.92.51,1.89,1.02,2.69,1.06,1.66,7.65,8.81,9.26,9.83.31.2.54.36.91.3.06-.83-1.1-2.16-1.64-2.79-.71-.83-1.44-1.49-2.31-2.14.8-.58,2.25-1.43,2.41-2.48.02-.11-.06-.19-.11-.29-.72-.32-1.74.07-2.43.33-.06.02-.13.05-.19.08.66-2.6,1.11-5.07-.32-7.55-.24-.42-.54-.84-.85-1.22-.55-.69-1.15-1.28-1.8-1.88ZM126.57,85.11c-.97.29-2.01.72-2.5,1.67-.31.6-.26,1.32-.05,1.95.72,2.12,3.58,3.8,5.5,4.71.62.29,1.25.52,1.92.67.87-.22,1.58-.56,2.37-.97-.14.91-.49,2.02.08,2.82.33.14.4.18.76.04.92-.37,1.69-1.57,2.38-2.27.53.78,1.09,1.56,1.59,2.37.95,1.2,1.88,2.23,3.1,3.16-.53-1.43-1.03-2.86-1.85-4.16-1.38-2.17-7.31-8.34-9.65-9.43-1.22-.57-2.31-.67-3.63-.57Z"/>
    <path d="M76.64,77.92c-1.11-.09-2.5-.91-3.26-1.7-.12-.44-.06-.58.06-1,1,.15,2.55,1.11,3.27,1.8.14.43.09.5-.07.9Z"/>
    <path class="st1" d="M137.73,77.68c-.18.19-.37.42-.59.56-.7-.01-1.42.11-1.94.63-.37.37-.53.86-.52,1.38.02.86.47,1.72,1.09,2.29.42.38.97.67,1.55.64.56-.02,1.08-.34,1.44-.76.41-.47.54-1.03.49-1.65,0-.07-.01-.09-.02-.17.08-.35.19-.69.29-1.03.31.38.61.79.85,1.22,1.43,2.47.99,4.95.32,7.55.06-.03.13-.05.19-.08.69-.26,1.71-.65,2.43-.33.05.1.12.18.11.29-.15,1.06-1.61,1.9-2.41,2.48.87.66,1.6,1.31,2.31,2.14.54.63,1.7,1.95,1.64,2.79-.37.07-.6-.1-.91-.3-1.61-1.02-8.19-8.17-9.26-9.83-.51-.8-.81-1.76-1.02-2.69-.33-1.46-.55-3.24.31-4.56.39-.59,1-1.09,1.71-1.23.75-.15,1.35.26,1.93.66Z"/>
    <path d="M68.77,79.48c-.13-.03-.27-.06-.4-.12-.33-.15-.66-.39-.79-.74-.15-.4-.02-.71.16-1.06.12.01.25.03.37.08.33.12.65.37.79.7.18.42,0,.76-.14,1.15Z"/>
    <path class="st0" d="M137.14,78.23c.22-.13.41-.37.59-.56.65.6,1.24,1.19,1.8,1.88-.1.34-.21.68-.29,1.03-.42-1.07-1.1-1.81-2.1-2.36Z"/>
    <path d="M139.24,80.59c.01.08.02.1.02.17.05.62-.08,1.17-.49,1.65-.36.42-.89.73-1.44.76-.57.03-1.13-.26-1.55-.64-.63-.57-1.07-1.44-1.09-2.29-.01-.52.15-1,.52-1.38.52-.52,1.23-.64,1.94-.63,1,.55,1.68,1.29,2.1,2.36ZM136.15,79.3c-.24.43-.41.69-.27,1.2.18.69.56,1.06,1.14,1.45.21.02.42.05.63.05.27-.39.49-.66.39-1.17-.1-.55-.51-.99-.98-1.27-.25-.15-.54-.2-.83-.25-.02,0-.05,0-.07-.01Z"/>
    <path class="st2" d="M45.09,80.34c2.12-.86,4.24-.94,6.5-1.03,1.06-.06,2.45.01,3.48.31.38.11.56.17.75.51-1.15.63-2.87,1.27-3.61,2.37-.34.51-.56,1.2-.95,1.67-.28.34-.85.24-1.25.24-.07-.21-.14-.42-.23-.63-.74-1.71-3.05-2.81-4.69-3.45Z"/>
    <path class="st0" d="M137.64,82c-.21,0-.42-.03-.63-.05-.58-.38-.96-.76-1.14-1.45-.14-.52.03-.77.27-1.2.02,0,.05,0,.07.01.29.05.58.1.83.25.47.28.87.72.98,1.27.1.51-.12.78-.39,1.17Z"/>
    <path class="st2" d="M170.55,98.87c-4-.54-7.17-1.87-9.82-5.04-3.2-3.83-3.68-8.04-3.23-12.84,3.07-.03,6.5-.21,9.42.87,4.35,1.62,6.4,5.57,8.2,9.54l-1.27,1.2c-.86-2.08-1.88-4.18-3.52-5.77-2.57-2.51-5.39-2.82-8.82-2.78l-.24,1.46c-.03,1.34.04,2.61.39,3.91,1.23,4.61,4.97,7.2,8.88,9.44Z"/>
    <path class="st2" d="M208.89,91.34c.76-2.25,1.89-4.32,3.44-6.13,4.05-4.72,7.15-3.71,12.62-4.12l1.72-.11c.34,4.72-.67,9.48-3.8,13.15-2.72,3.19-6.93,4.97-11.05,5.3.91-.44,1.84-.87,2.73-1.35,3.88-2.09,6.42-4.93,7.68-9.16.27-1.61.25-2.93.04-4.55-2.19-.26-4.32-.07-6.33.88-3.18,1.5-4.65,4.07-5.8,7.25l-1.26-1.16Z"/>
    <path d="M27.52,99.34c-.3-.07-.61-.14-.91-.21-3.36-.87-7.08-3.54-8.84-6.54-1.35-2.31-2.8-8.38-2.14-10.92.02,0,.05.01.07.01.3.05.5.13.75.31,1.19.83,2.28,1.9,3.36,2.87,3.52,3.15,7.87,7,8.71,11.89.07.4.13.78-.12,1.14-1.67.35-6.55-6.37-7.45-7.81-.77-1.23-1.39-3.65-2.58-4.37-.1.17-.23.36-.25.56-.06.44.26,1.14.42,1.55,1.08,2.74,3.31,5.64,5.34,7.76,1.21,1.27,2.52,2.43,3.64,3.78Z"/>
    <path class="st2" d="M40.74,85.12c1.4-.36,2.71-.92,4.03-1.49.43.07,1.1.93,1.54,1.2,1.16.71,2.42,1.23,3.67,1.75-.19.56-.4,1.06-.72,1.56-1.24,1.95-2.83,3.14-5.1,3.64-.86-1.18-1.56-2.42-2.17-3.75.41-.21,1.15-.5,1.37-.92.18-.33.15-.44.03-.76l-.4-.13c-.58.03-1.02.37-1.49.68l-.77-1.77Z"/>
    <path class="st1" d="M131.44,94.11c-.67-.15-1.3-.37-1.92-.67-1.92-.92-4.78-2.59-5.5-4.71-.21-.63-.27-1.34.05-1.95.5-.96,1.54-1.38,2.5-1.67,1.33-.1,2.41,0,3.63.57,2.34,1.08,8.27,7.26,9.65,9.43.83,1.3,1.32,2.73,1.85,4.16-1.22-.93-2.15-1.96-3.1-3.16-.49-.81-1.05-1.59-1.59-2.37-.69.7-1.46,1.9-2.38,2.27-.35.14-.43.1-.76-.04-.58-.8-.22-1.91-.08-2.82-.79.41-1.5.75-2.37.97ZM126.98,86.18c-.66.22-1.2.49-1.53,1.13-.25.48-.27,1.03-.1,1.54.26.81.89,1.45,1.65,1.82.45.22.89.29,1.39.28.74-.47,1.46-.95,1.66-1.86.12-.56.03-1.08-.28-1.56-.51-.76-1.39-1.13-2.26-1.28-.17-.03-.35-.06-.52-.07Z"/>
    <path class="st2" d="M170.92,97.45c-2.08-.97-3.97-2.19-5.5-3.91-2.12-2.4-3.09-5.07-2.89-8.27,1.73-.05,3.26.11,4.82.92,2.9,1.52,4.56,4.51,5.51,7.53-.53.85-1,1.71-1.44,2.61l-.5,1.12Z"/>
    <path class="st2" d="M211.1,93.86c.36-1.8.99-3.5,2.13-4.96,1.71-2.16,4.06-3.13,6.73-3.45.27,0,.63-.05.88.06.21.1.29.23.38.44.49,1.13-.32,3.36-.77,4.45-1.44,3.49-4.48,5.88-7.91,7.28-.3-.26-1.17-3.22-1.44-3.83Z"/>
    <path d="M128.39,90.95c-.5.01-.94-.06-1.39-.28-.76-.37-1.39-1.01-1.65-1.82-.16-.51-.15-1.06.1-1.54.33-.64.87-.91,1.53-1.13.18.01.35.04.52.07.87.15,1.75.52,2.26,1.28.32.48.4,1,.28,1.56-.2.91-.92,1.39-1.66,1.86ZM126.96,87.23c-.27.34-.55.64-.51,1.11.04.41.22.7.54.94.4.31.83.38,1.32.43.29-.33.54-.56.58-1.02-.08-.38-.19-.66-.52-.89-.43-.3-.89-.49-1.4-.57Z"/>
    <path d="M94.44,92.35l-.54-.06c-.42-.31-.64-.83-.88-1.27-.37-.66-1.93-3.36-1.87-3.94.02-.18.12-.42.17-.6.22.02.44.06.66.1,1.07.81,1.93,3.09,2.39,4.32.21.56.32.89.06,1.46Z"/>
    <path class="st0" d="M128.3,89.71c-.49-.05-.92-.13-1.32-.43-.32-.24-.5-.54-.54-.94-.04-.47.24-.77.51-1.11.51.08.97.27,1.4.57.33.23.44.5.52.89-.04.46-.28.7-.58,1.02Z"/>
    <path d="M103.03,92.26c-.14-.02-.29-.04-.43-.08-.86-.26-3.12-2.75-3.5-3.65-.16-.38,0-.65.14-1.01.11,0,.11,0,.23.03.98.18,3,2.68,3.53,3.52.29.45.14.72.03,1.2Z"/>
    <path class="st2" d="M171.54,100.02c.62-3.08,2.05-5.84,4.51-7.84,2.45-2,5.61-2.91,8.75-2.53,1.25.15,2.48.5,3.73.62.66.06,1.62.14,2.14-.35.58-.54.51-1.53.52-2.26,1.4.01,2.81.03,4.21-.04.02.68,0,1.56.41,2.14,1.09,1.5,5.24-.46,7.5.02,2.62.55,4.93,2.05,6.38,4.31,1.62,2.53,2.16,5.6,1.5,8.53-1.26.42-2.46,1.04-3.58,1.75-1.56.99-2.83,2.16-3.76,3.76-2.42,4.14-4.64,16.81-5.81,22.08l-6.33.03-.25-.03c-.18-.14-.22-.23-.28-.45-1.85-6.16-3.15-13.39-5.57-19.31-.58-1.43-1.3-2.82-2.33-3.98-2.66-2.96-8.11-4.93-11.73-6.45Z"/>
    <path class="st2" d="M64.24,89.16c.3-.35.52-.76.75-1.16.43.43.95,1.3,1.17,1.87l-.2.09-1.73-.8Z"/>
    <path class="st1" d="M252.25,110.82c.75-5.04,4.97-17.29,7.8-21.58.46,1.06,1.14,2.03,1.76,3-.05.05-.1.09-.15.14-2.39,2.42-4.65,6.27-4.57,9.78.03,1.21.33,2.06,1.21,2.88-.62,1.2-1.2,2.52-1.99,3.61-1.1,1.51-2.31,1.9-4.06,2.17Z"/>
    <path class="st2" d="M262.93,97.03c-.41-1.18-.44-2.62.1-3.76l.24-.16c.34.24.48.46.56.88.12.6.13,1.26.17,1.86,1.46-1.6,5.89-6.54,7.94-6.62.1,0,.12,0,.21.03.07.24.09.24-.04.45-.27.48-5.06,4.49-6.06,5.57-.31.34-1.17,1.48-1.53,1.59-.03,0-.06.01-.09.02-.55-.07-.99-.11-1.51.13Z"/>
    <path d="M46.79,109.01c.71-1.09,1.59-2.14,2.4-3.16.47-.59,1.22-1.67,2.01-1.76.64.55.59,2.13.67,2.93,0,6.32-.23,14.41-5.01,19.19-.52.52-1.06.87-1.69,1.23-.2-2.57.15-4.82.79-7.31.61-2.38,1.58-4.77,2.44-7.07.24-.64.6-1.28.79-1.94.08-.28.08-.56,0-.84l-.19-.11c-1.77,1.29-4.33,10.38-4.72,12.83-.35,2.24-.08,4.64-.55,6.82,2.15,3.07,4.43,6.14,6.83,9.01,1.39,1.66,2.94,3.23,4.28,4.93.16.21.25.43.26.69-.44.1-.77.19-1.21.01-2.33-2.2-4.31-4.77-6.27-7.28-5.01-6.44-9.41-13.09-13.09-20.39-.74-1.89-1.48-3.77-2.08-5.71-.63-2.02-1.04-4.32-2.03-6.2-.54-1.01-3.44-4.35-3.46-4.74-.01-.21.1-.26.24-.4.05,0,.09,0,.14,0,.97.06,2.46,2.29,3.04,3.04-.57-2.86-1.37-10-.73-12.52.08-.32.19-.37.46-.51.95.47.72,3.23.74,4.18.18,7.92,1.98,15.33,5.03,22.61,1.9,4.29,4.6,8.42,7.17,12.33-1.28-9.01-.91-11.96,3.75-19.86Z"/>
    <path class="st2" d="M56.14,93.31c1.38-.64,2.58-.9,4.09-1.08l.07.11c-2.05,2.44-3.74,5.06-7.18,5.49-2.65.33-4.61-1.09-6.58-2.61-.93-.8-1.6-1.7-2.29-2.71,4,.49,7.95-.17,11.9.8Z"/>
    <path d="M40.62,112.79c-.59.9-1.69,2.66-2.76,2.95-.26-.08-.28-.06-.43-.3,1.19-3.28.3-7.61.08-11.01-.06-.94.08-2.57-.28-3.43-.09-.21-.22-.21-.42-.29l-.26.16c-.97,1.75.79,8.8.42,11.58-.08.61-.24,1.06-.75,1.44l-.21-.04c-.42-.63-.68-1.39-.91-2.1-.78-2.34-1.56-5.01-1.39-7.5.22-3.03,2.38-7.26,3.75-9.98.25-.49.57-1.28,1.12-1.46.42.2.59.42.78.85.55,1.22.83,2.66,1.18,3.95,1.43,5.28,2.03,9.99.06,15.19Z"/>
    <path d="M92.93,99.41c-.12-.02-.25-.05-.37-.09-.76-.26-1.85-2.75-2.19-3.47-.37-.79-.67-1.18-.36-2.04l.58.13c1.06.88,2.07,3.01,2.52,4.33.15.45.03.74-.17,1.13Z"/>
    <path d="M99.68,99.41l-.5-.08c-1.02-.71-2.14-2.56-2.66-3.68-.21-.45-.06-.68.09-1.1.17.02.34.05.5.11.94.4,2.13,2.56,2.55,3.47.25.54.2.76,0,1.29Z"/>
    <path d="M104.7,99.28c-.12-.01-.23-.03-.34-.05-.8-.18-1.95-1.91-2.39-2.58-.44-.67-.54-.91-.38-1.7.17,0,.34.01.51.06.86.23,2.2,2.24,2.61,3.02.26.5.15.75,0,1.25Z"/>
    <path d="M111.03,99.65c-.06-.02-.11-.03-.17-.05-.03-.01-.05-.02-.08-.03-.1-.04-.2-.07-.3-.12-.76-.41-2.65-2.62-2.87-3.47-.1-.37.1-.57.28-.86.04.01.09.03.13.04.12.04.23.07.34.12.73.35,2.71,2.61,2.93,3.47.1.38-.09.59-.27.9Z"/>
    <path class="st0" d="M262.93,97.03c.52-.24.95-.21,1.51-.13-1.29,1.21-2.52,3-3.47,4.49-.4.63-1.11,2.46-1.68,2.75-.23-.19-.27-.24-.35-.52-.52-1.91,3.07-4.92,3.96-6.51.01-.02.02-.05.04-.07Z"/>
    <path class="st0" d="M239,103.96l1.32-1.43c.16.15.36.26.38.48.02.36-.3.59-.27.97l-.9,1.18c.49,1.82,1.65,5.69,1.49,7.49-.04.39-.11.53-.41.77l-.45-.08c-.55-1.39-.6-3.86-1.01-5.43-.58-2.25-1.48-4.57-2.58-6.62-.54-1.01-1.19-1.97-1.7-2.98-.24-.47-.3-.54-.13-1.06l.28-.1c1.47.62,3.28,5.24,3.98,6.81Z"/>
    <path d="M30.33,113.7c-5.04-2.92-11.51-4.59-14.13-10.29-.59-1.29-1.88-4.59-1.39-5.91.26.02.52.07.76.18,2.45,1.06,11.3,7.05,12.84,9.04,1.33,1.71,2,3.8,2.78,5.8-3.18-4.61-6.15-6.16-10.19-9.45-.91-.74-1.63-1.67-2.53-2.44-.39.03-.48.19-.77.45,2.09,2.64,4.88,4.29,7.42,6.43,2.11,1.78,3.73,3.88,5.2,6.2Z"/>
    <path class="st1" d="M259.4,105.81c.65.09,1.3.16,1.96.09,3.14-.32,5.29-3.65,7.11-5.92,2.11,1.69,4.04,3.49,5.63,5.69-2.81.5-5.51,1.05-8.07,2.38-3.06,1.6-6.01,4.17-7.06,7.58-.62,2.01-.74,3.94.28,5.84-.88.69-1.72,1.44-2.62,2.11-2.35,1.74-4.63,1.68-7.36,1.27.66-4.35,1.65-8.64,2.67-12.92.7-.02,1.38-.03,2.06-.2,3-.77,3.97-3.52,5.4-5.92Z"/>
    <path d="M99.33,107.15c-.11-.02-.21-.05-.31-.1-1.01-.41-2.28-3.91-2.74-5.02-.24-.57-.19-.79.04-1.35.2.04.41.11.61.16.48.43.79,1.02,1.08,1.59.51.99,1.56,2.95,1.54,4.05,0,.17-.16.49-.21.66Z"/>
    <path d="M92.16,107.15c-.26.06-.45.07-.72.02-.17-.03-.33-.26-.42-.41-.6-1-2.02-4.52-1.77-5.61l.62.04c.2.09.33.22.45.4.66,1.02,2.06,4.41,1.83,5.56Z"/>
    <path d="M106.23,106.72s-.09-.02-.13-.03c-.94-.25-1.83-1.79-2.33-2.6-.57-.92-1.3-1.86-1.04-2.95l.62.08c.72.45,2.85,3.7,3.12,4.61.08.28-.12.64-.24.89Z"/>
    <path d="M111.04,106.51c-.13-.02-.26-.04-.38-.09-.76-.25-1.73-2.23-2.06-2.93-.39-.84-.58-1.18-.25-2.08l.59.17c.93.85,1.89,2.71,2.29,3.9.15.44,0,.65-.19,1.03Z"/>
    <path class="st2" d="M186.3,134.6c-3.58-3.34-7.38-6.56-10.83-10.03-4.11-4.15-3.85-9.19-3.83-14.57l.04-8.57c2.55.92,5.29,2.21,7.64,3.55,1.26.71,2.47,1.54,3.34,2.71,2.64,3.54,5.13,14.22,6.41,18.88-1.15,1.75-1.91,3.5-2.49,5.51-.14.84-.21,1.67-.27,2.52ZM177.18,106.25c-.6.22-.99.4-1.27,1.01-.41.9-.26,1.88.1,2.76.53,1.36,1.58,2.45,2.93,3.02,1.26.54,2.43.51,3.77.48.45-.03.58-.02.95-.3.4-.74.27-1.64.04-2.42-.5-1.66-1.51-3.12-3.06-3.95-1.09-.59-2.23-.71-3.45-.61Z"/>
    <path class="st1" d="M240.32,102.52c.28-.39.5-.74.95-.95l.31.06c.14.36.14.69-.03,1.06-.23.47-.75.91-1.12,1.28-.02-.37.3-.6.27-.97-.01-.22-.22-.33-.38-.48Z"/>
    <path class="st1" d="M56.39,102.51c1.85,3.3,4.12,6.68,5.44,10.22,1.26,3.37,1.61,7.13,2.46,10.63,1.78,7.25,3.97,14.23,6.85,21.13-1.49-.28-3.38-.07-4.89-.07l-11.16.02c0-.26-.09-.48-.26-.69-1.34-1.7-2.89-3.26-4.28-4.93-2.4-2.88-4.68-5.94-6.83-9.01.47-2.18.2-4.58.55-6.82.38-2.45,2.94-11.54,4.72-12.83l.19.11c.07.28.07.56,0,.84-.19.65-.55,1.3-.79,1.94-.86,2.3-1.83,4.69-2.44,7.07-.64,2.5-.99,4.74-.79,7.31.64-.35,1.18-.71,1.69-1.23,4.78-4.79,5.01-12.87,5.01-19.19,2.24-1.25,2.82-2.8,4.52-4.51ZM56.73,113.91c-.84,1.08-1.48,2.38-2.14,3.57-2.12,3.86-4.27,8.03-3.71,12.57.36,2.86,1.57,5.27,3.7,7.2-.6-2.47-1.37-12.08,0-14.19.11-.17.28-.28.45-.38.01.03.03.06.04.09.42.95-.05,3.85-.07,5.04-.03,1.93.12,9.56,1.2,10.79.34.08.53.1.84-.11.98-.64,1.33-2.46,1.5-3.55.82-5.05-.14-10.54-.52-15.61-.12-1.64-.03-3.34-.28-4.96-.27-.32-.41-.4-.84-.45-.06,0-.12,0-.19,0Z"/>
    <path class="st2" d="M200.11,126.64c1.01-5.26,2.23-10.69,3.95-15.77,1.16-3.43,3.56-5.3,6.71-6.86l.12.28c-.1.71-.44,1.34-.74,1.98-.61.16-1.23.32-1.81.55-1.35.54-2.54,1.7-3.11,3.03-.31.72-.51,1.65-.19,2.41.19.45.55.72,1,.88,1.31.47,2.98-.05,4.18-.61.11,8.61-1.06,10.32-6.14,17.03-.58.7-1.11,1.42-1.65,2.15-.57-1.87-1.26-3.42-2.33-5.07Z"/>
    <path d="M182.7,113.53c-1.33.04-2.51.06-3.77-.48-1.34-.57-2.4-1.66-2.93-3.02-.35-.89-.5-1.87-.1-2.76.28-.61.66-.79,1.27-1.01,1.22-.1,2.35.02,3.45.61,1.55.83,2.57,2.29,3.06,3.95.23.78.37,1.67-.04,2.42-.36.28-.5.27-.95.3ZM177.76,107.42c-.26.36-.46.66-.4,1.13.03.28.2.52.43.67.18.12.41.17.63.22.27-.38.39-.58.41-1.06-.16-.43-.35-.65-.77-.85-.09-.04-.19-.08-.29-.12ZM181.46,110.38c-.23.36-.48.75-.42,1.2.05.37.26.5.52.73l.68.13c.22-.4.31-.82.2-1.27-.09-.38-.28-.52-.58-.74l-.41-.05Z"/>
    <path class="st2" d="M178.41,109.45c-.21-.05-.44-.1-.63-.22-.23-.15-.4-.39-.43-.67-.06-.47.14-.77.4-1.13.1.04.19.07.29.12.42.2.61.41.77.85-.01.48-.13.68-.41,1.06Z"/>
    <path class="st2" d="M208.98,108.45c-.29.03-.54.03-.83-.02.22-.36,1.07-.62,1.47-.8.1.01.15.01.25.05.31.12.34.31.42.59l-.17.31c-.45.17-.69,0-1.13-.13Z"/>
    <path class="st0" d="M275.42,109.81c.95-.46,2.39-1.36,3.45-1.13l.05.24c-.74.91-1.77,1.27-2.82,1.74-.2-.35-.39-.57-.69-.85Z"/>
    <path d="M220.74,127.7l-.42.02c-1.21-1.32-.72-6.98-.91-8.91-.13-1.48-.46-2.94-.98-4.34-.26-.69-.55-1.39-.89-2.04-.37-.71-1.71-2.19-1.61-2.98.03-.21.2-.33.34-.48,1.29-.52,5.69,1.07,7,1.62,5.34,2.25,11.57,6.53,13.83,12.11,1.16,2.85,1.08,6.21-.13,9.03-.66,1.48-1.57,2.84-2.7,4,.42,1.44.93,2.78,1.66,4.09.44.8,2.9,4.06,2.99,4.54-.42.22-.93.14-1.39.13l-.15-.05c-1.86-2.73-3.28-5.1-4.31-8.25-1.65.28-3.23.21-4.82-.32-3.51-1.16-6.02-3.82-7.65-7.05l1.31-.25c.41-.06.82-.14,1.23-.21.53-.1,1.05-.23,1.37-.7l-.11-.15c-1.18-.47-2.47-.05-3.66.2ZM224.3,116.37c0,.16-.02.44.02.58.2.69,3.8,5.47,4.61,6.8,1.03,1.69,1.87,3.69,2.58,5.53.34.89,1.32,4.63,1.76,5.03.08.08.26.03.37.02.17-.16.26-.19.27-.43.02-1.11-.53-2.45-.85-3.51-.51-1.31-1.05-2.59-1.65-3.86.69-1.32,1.67-2.9,1.61-4.43l-.16-.14c-1.01.59-1.41,2.22-1.92,3.22-1.51-2.68-3.61-6.77-6.02-8.69-.2-.04-.41-.09-.61-.12Z"/>
    <path class="st1" d="M40.62,112.79c.89-.08,4.96-3.16,6.16-3.78-4.66,7.9-5.03,10.85-3.75,19.86-2.57-3.91-5.27-8.04-7.17-12.33.49-.41,1.02-.76,1.56-1.11.15.24.17.22.43.3,1.07-.29,2.17-2.04,2.76-2.95Z"/>
    <path d="M89.88,115.53c-.22.01-.44,0-.66-.02-.13-.1-.23-.18-.31-.33-.55-.97-2.22-5.2-1.97-6.15.22.01.44.06.65.09.41.32.63.78.86,1.24.59,1.21,1.87,3.88,1.44,5.16Z"/>
    <path d="M106.12,115.72c-.14,0-.27,0-.4-.05-1.02-.45-2.96-4.01-3.36-5.11-.15-.43-.06-.7.13-1.09.14.02.29.04.42.09.33.12,3.28,4.67,3.5,5.26.11.29-.16.64-.29.91Z"/>
    <path class="st2" d="M207.94,112.06c-.24.01-.49.03-.73.03-.41,0-.52-.12-.78-.39-.26-.71.13-1.43.4-2.08.34.05.56.08.84.3.21.55.23,1.53.27,2.15Z"/>
    <path d="M98.81,116.26c-.22-.04-.41-.12-.61-.2-.89-1.11-1.47-3.16-1.98-4.51-.29-.76-.39-1.01-.05-1.76l.55.14c.96.86,1.94,3.79,2.29,5.07.15.58.08.78-.2,1.27Z"/>
    <path class="st0" d="M266.53,115.18c2.9-1.99,5.74-3.79,8.89-5.37.29.27.49.5.69.85-3.21,1.67-6.3,3.48-9.17,5.7-.93.72-1.88,1.43-2.76,2.2-.76.66-2.14,2.27-2.98,2.67-.26.12-.31.08-.57,0-.1-.22-.14-.3-.12-.55.02-.26.08-.53.26-.73,1.04-1.21,3.25-2.75,4.55-3.83.06-1.42-.02-3.33.79-4.55.13-.2.12-.2.35-.25.64.88.18,2.81.08,3.86Z"/>
    <path class="st2" d="M182.25,112.43l-.68-.13c-.26-.23-.47-.36-.52-.73-.06-.45.2-.84.42-1.2l.41.05c.3.22.49.35.58.74.11.46.02.87-.2,1.27Z"/>
    <path d="M28.16,124.04c-3.87-1.97-7.56-3.96-10.52-7.22-.68-.75-2.89-3.29-2.76-4.32.04-.35.16-.43.42-.64,2.27-.53,14.61,4.89,17.22,6.3,1.9,1.54,4.21,4.01,4.51,6.54.05.39.09.8-.01,1.18-.51-.14-2.16-2.14-2.7-2.64-1.36-1.25-3.03-2.6-4.69-3.43-1.94-1.24-4.1-1.91-6.06-3.06-.61-.36-2-1.62-2.68-1.51-.05,0-.09.02-.14.03-.06.34.02.45.2.73,1.26,1.84,6.24,3.55,8.33,4.7,2.75,1.92,5.07,4.18,7.12,6.84-3.2-.37-5.54-1.88-8.24-3.5Z"/>
    <path d="M54.59,137.25c-2.13-1.93-3.35-4.34-3.7-7.2-.56-4.54,1.59-8.71,3.71-12.57.66-1.2,1.3-2.49,2.14-3.57.06,0,.12,0,.19,0,.43.05.58.13.84.45.25,1.62.15,3.32.28,4.96.38,5.07,1.34,10.56.52,15.61-.18,1.09-.53,2.91-1.5,3.55-.31.2-.51.19-.84.11-1.08-1.23-1.24-8.85-1.2-10.79.02-1.18.48-4.09.07-5.04-.01-.03-.03-.06-.04-.09-.17.1-.34.21-.45.38-1.37,2.11-.6,11.72,0,14.19Z"/>
    <path class="st2" d="M29.29,120.7c-2.09-1.15-7.07-2.85-8.33-4.7-.19-.27-.27-.39-.2-.73.05-.01.09-.02.14-.03.69-.11,2.07,1.15,2.68,1.51,1.96,1.15,4.11,1.82,6.06,3.06l-.34.88Z"/>
    <path class="st2" d="M112.62,120.6c2.1-1.61,3.88-3.52,6.16-4.91l.21.09c-.05.18-.1.36-.15.55-.38,1.39-.5,2.47.27,3.76.66,1.12,1.68,1.92,2.94,2.23,1.16.29,2.37.16,3.4-.48,1.3-.82,1.97-2.25,2.13-3.74.04-.37-.06-.75.01-1.11.47-.13,1.02-.03,1.47.14,2.27.86,4.34,3.2,5.32,5.38.8,1.78.96,3.46.23,5.29-1.12,2.83-4.81,4.58-7.42,5.69-2.83,1.08-5.89,1.51-8.6,2.87-.84.42-2.78,2.46-2.98,2.5-.48-1.24.22-4.58-.44-6.62-.61-1.93-2.19-3.27-3.91-4.18.5-.55,1-1.11,1.27-1.82.43-1.14.17-2.07-.31-3.13.21-.82.29-1.69.41-2.53Z"/>
    <path class="st2" d="M124.3,118.09c-.51.25-1.13.04-1.37-.47-.25-.51-.03-1.13.48-1.37.51-.25,1.12-.03,1.37.48.25.51.04,1.12-.47,1.37Z"/>
    <path class="st0" d="M233.06,130.4c.32,1.06.87,2.4.85,3.51,0,.24-.1.27-.27.43-.11,0-.28.05-.37-.02-.45-.4-1.42-4.14-1.76-5.03-.71-1.85-1.55-3.84-2.58-5.53-.81-1.33-4.41-6.11-4.61-6.8-.04-.14-.02-.43-.02-.58.21.02.41.07.61.12,2.41,1.92,4.51,6.01,6.02,8.69.51-.99.91-2.62,1.92-3.22l.16.14c.05,1.53-.92,3.12-1.61,4.43.61,1.27,1.14,2.55,1.65,3.86Z"/>
    <path class="st1" d="M32.52,118.17c.66-.47,1.33-.93,2.01-1.38,3.68,7.29,8.08,13.94,13.09,20.39,1.96,2.52,3.94,5.09,6.27,7.28-3.86-.2-7.82.32-11.66-.09-4.4-.47-8.43-2.65-11.24-6.06,3.9,1.93,7.41,4.13,11.8,4.83.75.12,1.68.27,2.43.1.4-.09.63-.16.85-.51-.05-2.29-3.29-5.88-4.83-7.39-3.7-3.61-7.86-4.78-12.95-4.71.05-.09.07-.16.06-.27-.3-2.12-.4-4.18-.19-6.32,2.7,1.62,5.04,3.13,8.24,3.5-2.05-2.66-4.36-4.92-7.12-6.84l.34-.88c1.65.83,3.33,2.18,4.69,3.43.54.49,2.19,2.49,2.7,2.64.1-.38.06-.79.01-1.18-.3-2.53-2.6-5-4.51-6.54Z"/>
    <path d="M94.54,122.69l-.55-.13c-.9-.81-1.7-3.6-1.92-4.8-.09-.5.1-.69.35-1.08.1.04.08.03.17.07.03.01.05.02.08.04.03.01.06.02.08.04.65.33,1.24,2.33,1.47,3.02.33.97.8,1.88.32,2.84Z"/>
    <path class="st2" d="M99.98,129.23c-.08-.69-.14-1.39-.11-2.08.24-5.7,4.23-7.01,7.83-10.3.51-.01,1.04.14,1.47.42,1.06.67,1.68,1.9,1.92,3.1.2.96.17,2.07-.4,2.9-1.42,2.05-4.55.86-6.6,1.25-1.39.27-2.25.94-3.02,2.1-.53.69-.79,1.8-1.09,2.62ZM107.35,119.65c-.43.31-.98.8-1.11,1.33-.07.27.07.41.2.64.37.24.65.41,1.08.48.3-.11.35-.08.5-.38l-.16-.11-.31-.41.06-.25.2-.03.35.51h.27c.28-.3.33-.34.4-.73-.18-.38-.43-.73-.84-.88-.21-.08-.43-.12-.65-.17Z"/>
    <path class="st1" d="M260.11,122.29c1.22.91,2.67,1.46,4.19,1.6,4.98.51,9.81-3.69,13.43-6.62.11,2.18.15,4.26-.19,6.43-.18,1.15-.66,2.55-.68,3.67-.96.02-2.06-.3-3.05-.34-3.68-.15-7.49.18-11.04,1.2-3.36.96-7.02,3-8.75,6.15-.71,1.3-1.57,3.32-1.57,4.82,0,.5.21,1.09.35,1.57-.18.37-.39.66-.69.94-1.6,1.5-3.92,1.6-5.97,1.53,1.09-5.72,1.82-11.52,2.94-17.24.84.21,1.66.37,2.53.41,3.64.17,5.98-1.8,8.51-4.12Z"/>
    <path d="M107.87,121.61l.16.11c-.15.3-.2.27-.5.38-.44-.07-.72-.25-1.08-.48-.13-.23-.27-.37-.2-.64.13-.53.68-1.02,1.11-1.33.22.05.44.09.65.17.41.15.67.5.84.88-.07.4-.12.44-.4.73h-.27s-.35-.51-.35-.51l-.2.03-.06.25.31.41Z"/>
    <path d="M90.21,144.53c-.11,0-.22,0-.32-.04-.65-.18-.99-.9-1.27-1.46-2.48-4.88-2.77-13.97-1.09-19.2.36.04.62.05.9.31.31.69-.45,4.28-.54,5.36-.27,2.93-.23,5.98.54,8.83.26.97,2.03,5.1,1.97,5.59-.02.18-.13.43-.19.61Z"/>
    <path class="st2" d="M102.65,127.47c-.16.01-.3-.03-.46-.06v-.27c2.2-2.93,6-.42,9.1-2.49.01.02.03.03.04.05.21.29.22.66.14,1-.2.87-1.02,1.4-1.71,1.83-2.4.17-4.71-.1-7.11-.06Z"/>
    <path d="M96.61,132.44c-.06-.02-.12-.04-.18-.07-.78-.34-1.54-2.57-1.85-3.41-.34-.92-.55-1.29-.13-2.21.17.05.36.11.51.2.73.44,1.75,3.47,1.96,4.41.11.49-.06.69-.31,1.08Z"/>
    <path class="st0" d="M220.74,127.7c1.19-.25,2.48-.66,3.66-.2l.11.15c-.32.47-.84.6-1.37.7-.41.08-.82.15-1.23.21-.02-.05-.04-.09-.07-.14-.27-.52-.59-.57-1.09-.73Z"/>
    <path class="st2" d="M193.18,141.06c-.83-.12-1.66-.32-2.41-.71-1.41-.73-2.35-1.97-2.79-3.48-.82-2.8-.02-5.82,1.36-8.3.44.43.62,1.54.79,2.13-.14.14-.27.28-.4.43-.34.39-.5.85-.44,1.37.17,1.71,3.24,3.51,4.54,4.57-.01.97.34,3.14-.19,3.95l-.45.04Z"/>
    <path class="st2" d="M195.31,137.19c1.43-1.33,4.97-3.11,4.59-5.39-.3-1.81-.67-1.01-.19-3.12.57.33,1.02,1.89,1.19,2.52.59,2.21.62,5.03-.6,7.03-.98,1.61-2.44,2.3-4.2,2.72l-.54.06c-.59-.72-.27-2.89-.25-3.82Z"/>
    <path class="st1" d="M253.97,141.51c.9.32,1.79.62,2.74.75,7.22.98,10.84-4.68,15.15-9.31,1.29-1.39,2.74-2.56,4.24-3.7-1.42,5.3-5.3,9.78-10,12.49-5.29,3.06-10.63,2.96-16.55,2.71,1.89-.58,3.08-1.51,4.41-2.94Z"/>
    <path class="st0" d="M254.37,139.93l-.15.03-.26-.27c-.04-.3-.1-.44.03-.72.94-2.07,6.57-5.85,8.52-6.97,1.41-.82,2.89-1.52,4.42-2.09.21.01.32.11.48.22l.05.29c-.37.81-4.38,2.46-5.4,3.13-2.82,1.86-5.39,3.87-7.68,6.37Z"/>
    <path d="M30.98,138.3c-1.9-1.25-7.33-4.35-8.23-6.21-.16-.34-.13-.42-.02-.75,1.09-.83,4.15-.66,5.56-.72,5.08-.07,9.25,1.1,12.95,4.71,1.54,1.5,4.78,5.09,4.83,7.39-.22.35-.45.41-.85.51-.75.17-1.68.02-2.43-.1-4.39-.7-7.91-2.9-11.8-4.83Z"/>
    <path d="M111.89,139.24c-.2.03-.41.01-.62.01-.46-.29-.74-.81-1.03-1.26-.61-.96-1.59-2.44-1.33-3.6.81.16.98.38,1.44,1.05.71,1.03,1.77,2.53,1.54,3.81Z"/>
    <path d="M104.67,141.62c-.09-.03-.18-.07-.26-.12-.75-.4-2.41-4.74-2.62-5.67-.1-.45.1-.67.32-1.03.14.04.28.1.4.18.8.52,2.25,4.48,2.49,5.55.11.5-.06.7-.32,1.09Z"/>
  </g>
</svg>